<svg width="3882" height="3403" viewBox="0 0 3882 3403" fill="none" xmlns="http://www.w3.org/2000/svg">
<g clip-path="url(#clip0_6729_24608)">
<g opacity="0.2">
<g opacity="0.2">
<mask id="path-1-inside-1_6729_24608" fill="white">
<path d="M5006.86 2104.85L5059.45 2217.19L4920.98 2297.67L4732.09 2270.59L4602.53 2345.88L4652.89 2453.46L4514.36 2533.97L4325.47 2506.89L4195.88 2582.2L4246.24 2689.78L4107.71 2770.29L3918.82 2743.21L3789.22 2818.53L3839.58 2926.1L3701.05 3006.61L3512.16 2979.53L3382.52 3054.88L3432.93 3162.43L3294.4 3242.93L3105.51 3215.86L2975.86 3291.2L3026.26 3398.75L2887.73 3479.26L2698.86 3452.18L2569.2 3527.53L2619.56 3635.11L2481.08 3715.58L2292.19 3688.51L2162.54 3763.85L2212.9 3871.43L2074.43 3951.9L1885.54 3924.83L1752.98 4001.86L1555.84 3973.51L1505.44 3865.97L1319.61 3837.12L1269.21 3729.58L1083.38 3700.73L1032.98 3593.19L847.157 3564.35L796.797 3456.83L610.964 3427.98L560.564 3320.44L374.73 3291.59L324.33 3184.05L138.497 3155.21L88.0966 3047.67L-97.7232 3018.82L-148.137 2911.28L-333.957 2882.43L-384.37 2774.89L-570.19 2746.04L-620.551 2638.53L-806.37 2609.69L-856.784 2502.14L-1042.6 2473.3L-1093.02 2365.75L-1278.84 2336.91L-1331.43 2224.56L-1195.87 2145.78L-1246.23 2038.2L-1104.75 1955.98L-918.863 1984.8L-789.215 1909.46L-839.576 1801.88L-698.095 1719.66L-512.209 1748.48L-382.548 1673.13L-432.922 1565.56L-291.389 1483.31L-105.543 1512.15L24.1059 1436.81L-26.2551 1329.23L115.278 1246.98L301.111 1275.83L430.759 1200.48L380.399 1092.91L521.932 1010.66L707.817 1039.48L837.413 964.163L787.052 856.585L928.585 774.335L1114.47 803.154L1244.07 727.842L1193.71 620.264L1335.24 538.014L1521.12 566.833L1650.68 491.543L1600.27 383.996L1741.8 301.746L1935.93 331.844L1986.29 439.422L2172.16 468.234L2222.52 575.811L2408.4 604.623L2458.76 712.201L2644.63 741.012L2694.94 848.56L2880.81 877.371L2931.17 984.949L3117.04 1013.76L3167.4 1121.34L3353.28 1150.15L3403.62 1257.72L3589.51 1286.54L3639.86 1394.11L3825.74 1422.93L3876.09 1530.5L4061.98 1559.32L4112.28 1666.87L4298.16 1695.68L4348.5 1803.25L4534.39 1832.07L4584.74 1939.64L4770.62 1968.46L4820.97 2076.03L5006.86 2104.85ZM4485.27 2128.2L4437.16 2025.4L4259.53 1997.87L4130.06 2073.1L4178.18 2175.9L4355.81 2203.44L4485.27 2128.2ZM4344.74 1811.52L4215.28 1886.75L4263.39 1989.55L4441.02 2017.09L4570.49 1941.85L4522.37 1839.05L4344.74 1811.52ZM3636.1 1402.38L3506.63 1477.62L3554.75 1580.42L3732.38 1607.95L3861.84 1532.71L3813.73 1429.91L3636.1 1402.38ZM3540.39 1582.67L3492.28 1479.87L3314.65 1452.34L3185.18 1527.58L3209.23 1578.99L3233.3 1630.38L3308.14 1641.98L3410.93 1657.91L3540.39 1582.67ZM3399.86 1265.99L3270.4 1341.23L3318.51 1444.03L3496.14 1471.56L3625.61 1396.32L3577.49 1293.52L3399.86 1265.99ZM3163.63 1129.6L3034.17 1204.84L3082.28 1307.64L3259.91 1335.17L3389.37 1259.93L3341.26 1157.13L3163.63 1129.6ZM4580.98 1947.91L4451.51 2023.14L4499.63 2125.94L4677.26 2153.48L4806.72 2078.24L4758.61 1975.44L4580.98 1947.91ZM2927.4 993.211L2797.93 1068.45L2846.05 1171.25L3023.68 1198.78L3153.14 1123.54L3105.03 1020.74L2927.4 993.211ZM2831.7 1173.51L2783.59 1070.71L2605.96 1043.18L2476.5 1118.42L2511.2 1192.53L2524.61 1221.22L2702.24 1248.75L2831.7 1173.51ZM2123.06 764.376L2074.94 661.576L1897.31 634.043L1767.85 709.279L1791.88 760.687L1815.96 812.079L1937.14 830.845L1993.59 839.612L2123.06 764.376ZM1982.52 447.684L1853.05 522.92L1901.16 625.72L2078.8 653.253L2208.26 578.017L2160.15 475.217L1982.52 447.684ZM1886.82 627.986L1838.71 525.186L1661.08 497.653L1531.61 572.89L1555.64 624.297L1579.73 675.69L1757.36 703.223L1886.82 627.986ZM-1089.19 2357.46L-959.727 2282.22L-1007.84 2179.42L-1185.47 2151.89L-1314.93 2227.12L-1266.82 2329.92L-1089.19 2357.46ZM-852.958 2493.85L-723.494 2418.61L-771.607 2315.81L-949.237 2288.28L-1078.7 2363.51L-1030.59 2466.31L-852.958 2493.85ZM-144.31 2902.98L-14.8464 2827.75L-62.9596 2724.95L-240.59 2697.41L-370.054 2772.65L-321.94 2875.45L-144.31 2902.98ZM-48.6169 2722.68L-0.503508 2825.48L177.127 2853.01L306.591 2777.78L258.477 2674.98L80.8472 2647.44L-48.6169 2722.68ZM187.616 2859.07L235.73 2961.87L413.36 2989.4L542.824 2914.17L494.711 2811.37L317.081 2783.83L187.616 2859.07ZM423.85 2995.46L471.963 3098.26L649.593 3125.79L779.057 3050.56L730.944 2947.76L553.314 2920.22L423.85 2995.46ZM564.377 3312.14L693.841 3236.91L645.727 3134.11L468.097 3106.57L338.633 3181.81L386.747 3284.61L564.377 3312.14ZM-993.498 2177.15L-945.384 2279.95L-767.754 2307.49L-638.29 2232.25L-686.403 2129.45L-864.033 2101.92L-993.498 2177.15ZM660.083 3131.85L708.197 3234.65L885.827 3262.18L1015.29 3186.95L967.178 3084.15L789.548 3056.61L660.083 3131.85ZM1368.73 3540.99L1416.84 3643.79L1594.47 3671.32L1723.94 3596.08L1675.82 3493.28L1498.19 3465.75L1368.73 3540.99ZM1509.26 3857.67L1638.72 3782.44L1590.61 3679.63L1412.98 3652.1L1283.51 3727.34L1331.63 3830.14L1509.26 3857.67ZM1604.96 3677.38L1653.08 3780.18L1830.71 3807.71L1960.17 3732.47L1912.06 3629.67L1734.43 3602.14L1604.96 3677.38ZM166.064 2461.09L36.5999 2536.33L84.7132 2639.13L262.343 2666.66L391.807 2591.43L343.694 2488.63L166.064 2461.09ZM1819.63 3415.78L1690.17 3491.02L1738.28 3593.82L1915.91 3621.35L2045.38 3546.11L1997.26 3443.31L1819.63 3415.78ZM-553.073 2045.9L-601.187 1943.1L-778.817 1915.57L-908.281 1990.8L-860.167 2093.6L-682.537 2121.14L-553.073 2045.9ZM-542.583 2051.96L-672.047 2127.19L-623.934 2229.99L-446.304 2257.52L-316.84 2182.29L-364.953 2079.49L-542.583 2051.96ZM874.751 2870.25L745.287 2945.49L793.4 3048.29L971.03 3075.82L1100.49 3000.59L1052.38 2897.79L874.751 2870.25ZM4721.5 2264.59L4673.39 2161.79L4495.76 2134.26L4366.3 2209.49L4381.71 2242.43L4414.41 2312.29L4558.7 2334.67L4592.04 2339.83L4721.5 2264.59ZM1745.49 3994.06L1874.95 3918.82L1826.84 3816.02L1649.21 3788.49L1519.75 3863.73L1567.86 3966.53L1745.49 3994.06ZM2055.87 3552.17L1926.4 3627.41L1974.51 3730.21L2152.14 3757.74L2281.61 3682.5L2233.5 3579.7L2055.87 3552.17ZM830.504 2759.14L878.63 2861.93L1056.25 2889.47L1185.71 2814.24L1137.6 2711.44L959.968 2683.9L830.504 2759.14ZM594.27 2622.75L642.397 2725.54L820.014 2753.08L949.478 2677.85L901.364 2575.05L723.734 2547.51L594.27 2622.75ZM358.037 2486.36L406.163 2589.15L583.78 2616.69L713.244 2541.46L665.131 2438.66L487.501 2411.12L358.037 2486.36ZM1775.38 3304.67L1823.51 3407.46L2001.13 3435L2130.59 3359.76L2082.48 3256.96L1904.85 3229.43L1775.38 3304.67ZM2011.62 3441.06L2059.74 3543.85L2237.36 3571.39L2366.83 3496.15L2318.71 3393.35L2141.08 3365.82L2011.62 3441.06ZM-586.844 1940.83L-538.717 2043.62L-361.101 2071.17L-231.637 1995.93L-279.75 1893.13L-457.38 1865.6L-586.844 1940.83ZM1281.4 2633.93L1151.94 2709.17L1200.07 2811.96L1377.68 2839.5L1507.15 2764.27L1459.03 2661.47L1281.4 2633.93ZM1066.74 2895.53L1114.86 2998.32L1292.48 3025.86L1421.94 2950.62L1373.83 2847.82L1196.2 2820.29L1066.74 2895.53ZM-146.42 1809.58L-194.533 1706.78L-372.163 1679.24L-501.627 1754.48L-453.501 1857.27L-275.884 1884.81L-146.42 1809.58ZM-135.93 1815.63L-265.394 1890.87L-217.267 1993.66L-39.6504 2021.2L89.8136 1945.97L41.7004 1843.17L-135.93 1815.63ZM2226.29 3179.46L2096.82 3254.7L2144.95 3357.49L2322.56 3385.03L2452.03 3309.79L2403.92 3206.99L2226.29 3179.46ZM572.718 2224.77L443.254 2300.01L491.38 2402.8L668.997 2430.34L798.461 2355.1L750.348 2252.3L572.718 2224.77ZM1473.4 2659.2L1521.52 2762L1699.15 2789.53L1828.61 2714.3L1780.49 2611.5L1602.87 2583.96L1473.4 2659.2ZM175.03 1759.6L126.904 1656.81L-50.713 1629.27L-180.177 1704.5L-132.064 1807.3L45.5663 1834.84L175.03 1759.6ZM1237.17 2522.81L1285.28 2625.61L1462.91 2653.14L1592.38 2577.91L1544.25 2475.11L1366.63 2447.57L1237.17 2522.81ZM1000.94 2386.42L1049.05 2489.22L1226.68 2516.75L1356.14 2441.52L1308.02 2338.72L1130.4 2311.18L1000.94 2386.42ZM764.704 2250.03L812.817 2352.83L990.447 2380.36L1119.91 2305.13L1071.78 2202.34L894.168 2174.79L764.704 2250.03ZM2182.05 3068.34L2230.16 3171.14L2407.79 3198.67L2537.26 3123.43L2489.13 3020.64L2311.52 2993.1L2182.05 3068.34ZM2418.28 3204.73L2466.4 3307.53L2644.03 3335.06L2773.49 3259.82L2725.37 3157.03L2547.75 3129.49L2418.28 3204.73ZM2333.05 3391.09L2381.18 3493.88L2558.8 3521.42L2688.26 3446.18L2640.15 3343.38L2462.52 3315.85L2333.05 3391.09ZM4913.48 2289.86L5042.94 2214.62L4994.84 2111.83L4817.21 2084.3L4687.75 2159.53L4735.86 2262.33L4913.48 2289.86ZM2196.39 3868.86L2148.29 3766.06L1970.66 3738.53L1841.2 3813.77L1889.31 3916.57L2066.93 3944.09L2196.39 3868.86ZM3304.16 1446.28L3256.04 1343.48L3078.43 1315.96L2948.96 1391.2L2972.99 1442.6L2997.06 1493.99L3174.69 1521.52L3304.16 1446.28ZM638.531 2733.87L509.067 2809.11L557.167 2911.9L734.797 2939.43L864.261 2864.2L816.148 2761.4L638.531 2733.87ZM328.143 3175.75L457.607 3100.52L409.494 2997.72L231.877 2970.19L102.413 3045.43L150.513 3148.22L328.143 3175.75ZM1616.83 386.538L1664.93 489.33L1842.56 516.863L1972.03 441.627L1923.91 338.827L1746.3 311.302L1616.83 386.538ZM-1229.72 2040.77L-1181.62 2143.56L-1003.99 2171.1L-874.524 2095.86L-922.637 1993.06L-1100.25 1965.54L-1229.72 2040.77ZM3067.92 1309.9L3019.82 1207.1L2842.19 1179.57L2712.73 1254.81L2747.44 1328.86L2760.84 1357.61L2938.46 1385.13L3067.92 1309.9ZM91.9098 3039.37L221.374 2964.13L173.274 2861.34L-4.35625 2833.8L-133.82 2909.04L-85.7071 3011.84L91.9098 3039.37ZM402.297 2597.48L272.833 2672.72L320.947 2775.52L498.563 2803.04L628.028 2727.81L579.927 2625.02L402.297 2597.48ZM2603.05 3632.53L2554.95 3529.74L2377.32 3502.21L2247.85 3577.44L2295.98 3680.24L2473.58 3707.77L2603.05 3632.53ZM3009.71 3396.2L2961.6 3293.42L2783.98 3265.88L2654.52 3341.12L2702.63 3443.92L2880.25 3471.44L3009.71 3396.2ZM1045.18 2497.55L915.72 2572.79L963.834 2675.57L1141.45 2703.11L1270.91 2627.88L1222.8 2525.08L1045.18 2497.55ZM-823.064 1804.45L-774.951 1907.24L-597.334 1934.78L-467.87 1859.54L-515.983 1756.74L-693.6 1729.21L-823.064 1804.45ZM808.951 2361.16L679.487 2436.4L727.613 2539.19L905.217 2566.72L1034.68 2491.49L986.581 2388.69L808.951 2361.16ZM-416.397 1568.12L-368.297 1670.91L-190.667 1698.45L-61.2031 1623.21L-109.33 1520.42L-286.933 1492.89L-416.397 1568.12ZM1672.19 889.544L1801.7 814.284L1753.53 711.515L1664.76 697.733L1575.95 683.951L1446.45 759.211L1494.6 861.988L1672.19 889.544ZM1716.49 1000.64L1668.33 897.874L1490.75 870.31L1361.23 945.577L1409.4 1048.35L1586.98 1075.91L1716.49 1000.64ZM666.901 1336.93L618.787 1234.13L441.157 1206.59L311.693 1281.83L359.859 1384.6L537.437 1412.16L666.901 1336.93ZM2512.45 2316.89L2641.92 2241.65L2593.81 2138.85L2416.18 2111.32L2286.71 2186.56L2334.88 2289.33L2512.45 2316.89ZM581.684 1523.28L533.571 1420.48L355.941 1392.95L226.477 1468.18L274.643 1570.95L452.22 1598.52L581.684 1523.28ZM988.338 1286.96L940.224 1184.16L762.594 1156.62L633.13 1231.86L681.296 1334.63L858.874 1362.19L988.338 1286.96ZM2588.7 2832.02L2636.87 2934.78L2814.45 2962.35L2943.91 2887.11L2895.8 2784.31L2718.17 2756.78L2588.7 2832.02ZM1480.26 864.254L1432.09 761.485L1254.52 733.921L1125 809.188L1173.17 911.957L1350.74 939.521L1480.26 864.254ZM903.134 1473.32L855.021 1370.52L677.391 1342.98L547.927 1418.22L596.093 1520.99L773.67 1548.55L903.134 1473.32ZM1880.06 2422.88L1928.22 2525.65L2105.8 2553.21L2235.27 2477.97L2187.15 2375.17L2009.52 2347.64L1880.06 2422.88ZM2995.36 2595.69L3043.52 2698.46L3221.1 2726.03L3350.57 2650.79L3302.45 2547.99L3124.82 2520.46L2995.36 2595.69ZM2276.22 2180.5L2405.69 2105.26L2357.57 2002.46L2179.94 1974.93L2050.48 2050.17L2098.64 2152.94L2276.22 2180.5ZM2425.14 1409.78L2376.98 1307.01L2199.4 1279.45L2069.88 1354.72L2118.05 1457.48L2295.62 1485.05L2425.14 1409.78ZM2853.31 1571.46L2982.81 1496.2L2934.65 1393.43L2757.07 1365.87L2627.57 1441.13L2675.72 1543.9L2853.31 1571.46ZM3089.54 1707.85L3219.05 1632.59L3170.88 1529.82L2993.3 1502.26L2863.8 1577.52L2911.95 1680.29L3089.54 1707.85ZM3133.83 1818.94L3085.66 1716.17L2908.09 1688.61L2778.57 1763.88L2826.73 1866.65L3004.31 1894.21L3133.83 1818.94ZM3325.78 1844.24L3455.28 1768.98L3407.11 1666.21L3318.32 1652.42L3229.54 1638.65L3100.03 1713.91L3148.18 1816.68L3325.78 1844.24ZM2039.99 2044.11L2169.45 1968.87L2121.34 1866.07L1943.71 1838.54L1814.24 1913.78L1862.41 2016.55L2039.99 2044.11ZM1803.75 1907.72L1933.22 1832.48L1885.11 1729.68L1707.48 1702.15L1578.01 1777.39L1626.18 1880.16L1803.75 1907.72ZM1611.78 1882.45L1563.67 1779.65L1386.04 1752.12L1256.57 1827.36L1304.74 1930.13L1482.32 1957.69L1611.78 1882.45ZM1643.82 2286.49L1691.99 2389.26L1869.57 2416.82L1999.03 2341.58L1950.92 2238.78L1773.29 2211.25L1643.82 2286.49ZM2910.14 2782.05L2958.31 2884.81L3135.89 2912.38L3265.35 2837.14L3217.24 2734.34L3039.61 2706.81L2910.14 2782.05ZM2824.94 2968.4L2873.1 3071.17L3050.68 3098.74L3180.15 3023.5L3132.03 2920.7L2954.4 2893.17L2824.94 2968.4ZM3231.59 2732.08L3279.76 2834.85L3457.33 2862.42L3586.8 2787.18L3538.69 2684.38L3361.06 2656.85L3231.59 2732.08ZM2617.07 1435.07L2746.58 1359.81L2706.28 1273.83L2698.41 1257.04L2609.64 1243.26L2520.84 1229.48L2391.33 1304.74L2439.48 1407.51L2617.07 1435.07ZM4044.91 2259.43L4093.06 2362.21L4270.66 2389.77L4400.16 2314.51L4362.34 2233.81L4351.99 2211.74L4285.09 2201.33L4174.42 2184.17L4044.91 2259.43ZM4078.71 2364.47L4030.54 2261.7L3852.97 2234.14L3723.45 2309.4L3771.61 2412.17L3949.19 2439.74L4078.71 2364.47ZM4034.42 2253.38L4163.93 2178.12L4121.81 2088.2L4115.76 2075.35L4071.58 2068.5L3938.18 2047.78L3808.68 2123.04L3856.83 2225.82L4034.42 2253.38ZM1407.59 2150.1L1455.76 2252.87L1633.33 2280.43L1762.8 2205.2L1714.68 2102.4L1537.05 2074.86L1407.59 2150.1ZM2320.47 2291.61L2272.36 2188.82L2094.73 2161.28L1965.26 2236.52L2013.43 2339.29L2191 2366.85L2320.47 2291.61ZM1171.36 2013.71L1219.52 2116.48L1397.1 2144.04L1526.56 2068.81L1478.45 1966.01L1300.82 1938.47L1171.36 2013.71ZM3627.76 2489.71L3757.27 2414.44L3709.11 2311.67L3531.53 2284.11L3402.01 2359.37L3450.18 2462.14L3627.76 2489.71ZM2446.64 1807.79L2576.16 1732.52L2527.99 1629.75L2350.41 1602.19L2220.9 1677.46L2269.06 1780.23L2446.64 1807.79ZM2210.41 1671.4L2339.92 1596.13L2291.76 1493.36L2114.18 1465.8L1984.66 1541.07L2032.83 1643.84L2210.41 1671.4ZM2018.49 1646.1L1970.32 1543.33L1792.74 1515.77L1663.23 1591.04L1711.39 1693.81L1888.97 1721.37L2018.49 1646.1ZM1309.84 1236.96L1261.67 1134.2L1084.1 1106.63L954.581 1181.9L1002.75 1284.67L1180.32 1312.23L1309.84 1236.96ZM1265.53 1125.87L1395.04 1050.61L1346.88 947.836L1169.3 920.273L1039.78 995.54L1087.95 1098.31L1265.53 1125.87ZM3316.8 2545.72L3364.96 2648.49L3542.54 2676.06L3672.06 2600.79L3623.89 2498.02L3446.31 2470.46L3316.8 2545.72ZM2682.87 1944.18L2812.39 1868.91L2764.23 1766.14L2586.65 1738.58L2457.13 1813.85L2505.3 1916.61L2682.87 1944.18ZM1073.61 1100.58L1025.44 997.806L847.864 970.242L718.347 1045.51L766.513 1148.28L944.09 1175.84L1073.61 1100.58ZM2727.17 2055.26L2679.01 1952.49L2501.43 1924.93L2371.91 2000.2L2420.08 2102.97L2597.66 2130.53L2727.17 2055.26ZM2919.11 2080.57L3048.62 2005.3L3000.46 1902.53L2822.88 1874.97L2693.36 1950.24L2741.53 2053L2919.11 2080.57ZM3638.25 2495.76L3686.41 2598.53L3863.99 2626.1L3993.51 2550.83L3945.34 2448.06L3767.76 2420.5L3638.25 2495.76ZM3146.38 2918.44L3194.54 3021.2L3372.12 3048.77L3501.58 2973.53L3453.47 2870.73L3275.84 2843.2L3146.38 2918.44ZM3959.68 2445.79L4007.85 2548.56L4185.43 2576.13L4314.94 2500.86L4266.78 2398.09L4089.2 2370.53L3959.68 2445.79ZM3553.03 2682.11L3601.19 2784.88L3778.77 2812.45L3908.29 2737.18L3860.12 2634.41L3682.55 2606.85L3553.03 2682.11ZM4012.8 1855.42L3964.7 1752.63L3787.11 1725.12L3657.65 1800.36L3681.69 1851.77L3705.72 1903.13L3850.05 1925.53L3883.34 1930.66L4012.8 1855.42ZM1036.79 3584.89L1166.25 3509.66L1118.15 3406.86L940.564 3379.35L811.1 3454.59L859.174 3557.37L1036.79 3584.89ZM1347.22 3143.03L1217.75 3218.27L1265.83 3321.05L1443.44 3348.57L1572.91 3273.33L1524.81 3170.54L1347.22 3143.03ZM2595.47 1037.12L2547.36 934.324L2369.78 906.822L2240.31 982.058L2288.38 1084.83L2409.56 1103.6L2466.01 1112.36L2595.47 1037.12ZM-757.264 2313.54L-709.151 2416.34L-531.574 2443.85L-402.11 2368.61L-450.17 2265.84L-627.8 2238.31L-757.264 2313.54ZM-380.544 2766.59L-251.08 2691.36L-299.193 2588.56L-476.77 2561.06L-606.234 2636.29L-558.174 2739.06L-380.544 2766.59ZM2218.75 584.073L2089.29 659.309L2137.4 762.109L2314.98 789.612L2444.44 714.375L2396.38 611.606L2218.75 584.073ZM2454.98 720.463L2325.52 795.699L2373.63 898.499L2551.21 926.001L2680.67 850.765L2632.61 747.996L2454.98 720.463ZM-521.031 2449.93L-472.917 2552.73L-295.34 2580.24L-165.876 2505L-213.937 2402.23L-391.567 2374.7L-521.031 2449.93ZM-70.1164 2324.73L-199.58 2399.97L-151.52 2502.74L26.1097 2530.27L155.574 2455.04L107.461 2352.24L-70.1164 2324.73ZM2359.24 900.735L2311.18 797.965L2133.55 770.432L2004.08 845.669L2052.19 948.468L2173.33 967.212L2229.77 975.971L2359.24 900.735ZM4249.04 1991.81L4200.92 1889.01L4023.35 1861.51L3893.88 1936.75L3917.87 1988.13L3941.94 2039.52L4086.29 2061.92L4119.57 2067.05L4249.04 1991.81ZM3776.57 1719.03L3728.51 1616.26L3550.88 1588.73L3421.42 1663.97L3445.46 1715.38L3469.53 1766.77L3647.11 1794.27L3776.57 1719.03ZM4108.56 1675.16L3979.1 1750.39L4027.16 1853.16L4204.79 1880.7L4334.25 1805.46L4286.14 1702.66L4108.56 1675.16ZM2691.22 856.852L2561.75 932.088L2609.81 1034.86L2787.44 1062.39L2916.91 987.154L2868.79 884.354L2691.22 856.852ZM1583.45 3279.42L1453.99 3354.66L1502.05 3457.43L1679.68 3484.96L1809.14 3409.72L1761.03 3306.92L1583.45 3279.42ZM-306.35 2188.34L-435.814 2263.58L-387.701 2366.38L-210.124 2393.88L-80.6596 2318.65L-128.72 2215.88L-306.35 2188.34ZM1273.02 3721.28L1402.49 3646.05L1354.37 3543.25L1176.8 3515.74L1047.33 3590.98L1095.39 3693.75L1273.02 3721.28ZM1110.98 3006.64L981.52 3081.88L1029.63 3184.68L1207.21 3212.18L1336.67 3136.95L1288.61 3034.18L1110.98 3006.64ZM800.557 3448.5L930.021 3373.27L881.961 3270.5L704.331 3242.96L574.867 3318.2L622.98 3421L800.557 3448.5ZM-284.797 2586.32L-236.737 2689.09L-59.1069 2716.62L70.3572 2641.39L22.2438 2538.59L-155.333 2511.09L-284.797 2586.32ZM-616.777 2630.2L-487.313 2554.97L-535.373 2452.2L-713.003 2424.67L-842.468 2499.9L-794.354 2602.7L-616.777 2630.2ZM1132.55 3404.63L1180.61 3507.4L1358.24 3534.93L1487.7 3459.69L1439.59 3356.89L1262.01 3329.39L1132.55 3404.63ZM3872.33 1538.77L3742.87 1614L3790.98 1716.81L3968.56 1744.31L4098.02 1669.07L4049.96 1566.3L3872.33 1538.77ZM896.317 3268.24L944.43 3371.04L1122.01 3398.54L1251.47 3323.3L1203.41 3220.54L1025.78 3193L896.317 3268.24ZM979.384 1988.44L849.92 2063.68L898.086 2166.45L1075.66 2194.01L1205.13 2118.78L1157 2015.98L979.384 1988.44ZM2632.95 2943.13L2503.49 3018.37L2551.65 3121.14L2729.23 3148.7L2858.7 3073.46L2810.57 2970.67L2632.95 2943.13ZM260.247 1573.25L212.121 1470.46L34.5037 1442.92L-94.9604 1518.15L-46.7944 1620.92L130.783 1648.48L260.247 1573.25ZM496.48 1709.64L448.354 1606.85L270.737 1579.31L141.273 1654.54L189.439 1757.31L367.016 1784.87L496.48 1709.64ZM1688.07 2397.6L1558.61 2472.84L1606.77 2575.61L1784.35 2603.17L1913.81 2527.94L1865.69 2425.14L1688.07 2397.6ZM2739.72 3154.76L2787.89 3257.53L2965.46 3285.09L3094.93 3209.85L3046.8 3107.06L2869.19 3079.52L2739.72 3154.76ZM4636.38 2450.89L4588.23 2348.13L4410.65 2320.56L4281.15 2395.82L4329.3 2498.6L4506.88 2526.15L4636.38 2450.89ZM3416.37 3159.88L3368.27 3057.09L3190.64 3029.56L3061.17 3104.79L3109.34 3207.56L3286.9 3235.12L3416.37 3159.88ZM3823.02 2923.56L3774.92 2820.77L3597.29 2793.24L3467.83 2868.47L3515.99 2971.24L3693.56 2998.8L3823.02 2923.56ZM4229.73 2687.21L4181.57 2584.45L4004 2556.88L3874.48 2632.15L3922.65 2734.92L4100.21 2762.48L4229.73 2687.21ZM2084.23 2155.23L2036.12 2052.43L1858.5 2024.9L1729.04 2100.14L1777.19 2202.9L1954.77 2230.46L2084.23 2155.23ZM2897.6 1682.55L2849.43 1579.78L2671.86 1552.23L2542.35 1627.49L2590.5 1730.26L2768.08 1757.82L2897.6 1682.55ZM396.91 1095.48L445.063 1198.24L622.64 1225.8L752.104 1150.57L703.991 1047.77L526.374 1020.24L396.91 1095.48ZM2490.94 1918.87L2442.78 1816.1L2265.21 1788.55L2135.69 1863.82L2183.85 1966.58L2361.42 1994.14L2490.94 1918.87ZM-9.74362 1331.8L38.4092 1434.56L215.986 1462.13L345.451 1386.89L297.337 1284.09L119.72 1256.56L-9.74362 1331.8ZM1210.23 622.829L1258.37 725.598L1435.96 753.154L1565.46 677.895L1517.3 575.126L1339.73 547.57L1210.23 622.829ZM803.564 859.158L851.717 961.919L1029.29 989.483L1158.81 914.216L1110.64 811.447L933.08 783.891L803.564 859.158ZM1848 2018.84L1799.9 1916.04L1622.27 1888.51L1492.81 1963.75L1540.97 2066.52L1718.54 2094.07L1848 2018.84ZM2661.36 1546.16L2613.21 1443.4L2435.63 1415.84L2306.11 1491.1L2354.28 1593.87L2531.84 1621.43L2661.36 1546.16ZM2254.71 1782.48L2206.56 1679.72L2028.98 1652.16L1899.46 1727.43L1947.63 1830.2L2125.19 1857.75L2254.71 1782.48ZM1753.87 2906.71L1624.41 2981.95L1672.49 3084.72L1850.1 3112.25L1979.56 3037.01L1931.46 2934.22L1753.87 2906.71ZM336.537 2088.41L207.073 2163.65L255.147 2266.41L432.763 2293.95L562.227 2218.72L514.114 2115.91L336.537 2088.41ZM-350.61 2077.22L-302.484 2180.01L-124.92 2207.52L4.54391 2132.29L-43.5163 2029.52L-221.146 2001.99L-350.61 2077.22ZM-114.377 2213.61L-66.2506 2316.4L111.313 2343.91L240.777 2268.68L192.717 2165.91L15.087 2138.38L-114.377 2213.61ZM100.304 1952.02L-29.1603 2027.26L18.9662 2130.05L196.53 2157.56L325.994 2082.33L277.934 1979.56L100.304 1952.02ZM1539.2 3168.31L1587.28 3271.07L1764.89 3298.61L1894.36 3223.37L1846.25 3120.57L1668.67 3093.07L1539.2 3168.31ZM121.856 2350L169.93 2452.76L347.547 2480.3L477.011 2405.07L428.897 2302.27L251.32 2274.76L121.856 2350ZM1990.11 3043.1L1860.64 3118.34L1908.71 3221.1L2086.33 3248.64L2215.8 3173.4L2167.68 3070.6L1990.11 3043.1ZM1517.64 2770.32L1388.17 2845.56L1436.3 2948.35L1613.86 2975.86L1743.33 2900.62L1695.27 2797.85L1517.64 2770.32ZM292.29 1977.28L340.403 2080.08L517.98 2107.58L647.444 2032.35L599.371 1929.59L421.754 1902.05L292.29 1977.28ZM56.0564 1840.89L104.17 1943.69L281.747 1971.2L411.211 1895.96L363.137 1793.2L185.52 1765.66L56.0564 1840.89ZM528.523 2113.67L576.583 2216.44L754.213 2243.97L883.678 2168.74L835.551 2065.95L657.987 2038.44L528.523 2113.67ZM1945.87 2931.98L1993.93 3034.75L2171.56 3062.28L2301.03 2987.04L2252.9 2884.25L2075.34 2856.74L1945.87 2931.98ZM1302.97 3031.92L1351.1 3134.71L1528.66 3162.22L1658.13 3086.98L1610.06 2984.21L1432.43 2956.68L1302.97 3031.92ZM1709.64 2795.59L1757.75 2898.39L1935.33 2925.89L2064.79 2850.65L2016.72 2747.89L1839.1 2720.35L1709.64 2795.59ZM1451.85 2261.22L1322.39 2336.46L1370.54 2439.22L1548.12 2466.78L1677.58 2391.55L1629.45 2288.75L1451.85 2261.22ZM1215.62 2124.83L1086.15 2200.07L1134.32 2302.84L1311.88 2330.39L1441.35 2255.16L1393.23 2152.37L1215.62 2124.83ZM2792.88 2564.36L2744.78 2461.57L2567.19 2434.06L2437.73 2509.3L2485.85 2612.04L2663.42 2639.6L2792.88 2564.36ZM3606.24 2091.69L3558.09 1988.93L3380.55 1961.39L3251.03 2036.65L3299.16 2139.4L3476.73 2166.96L3606.24 2091.69ZM3199.59 2328.01L3151.44 2225.25L2973.9 2197.71L2844.38 2272.98L2892.51 2375.72L3070.07 2403.28L3199.59 2328.01ZM698.943 1740.96L747.11 1843.73L924.634 1871.26L1054.1 1796.03L1006.04 1693.26L828.408 1665.72L698.943 1740.96ZM1908.37 1025.9L2037.88 950.643L2003.22 876.556L1989.76 847.904L1812.19 820.341L1682.68 895.6L1730.84 998.377L1908.37 1025.9ZM462.71 1604.57L510.876 1707.34L688.4 1734.87L817.864 1659.64L769.804 1556.87L592.174 1529.34L462.71 1604.57ZM2188.91 1273.39L2140.74 1170.62L1963.22 1143.09L1833.7 1218.36L1881.81 1321.1L2059.39 1348.66L2188.91 1273.39ZM2144.61 1162.29L2274.11 1087.03L2226 984.294L2048.42 956.73L1918.92 1031.99L1967.07 1134.77L2144.61 1162.29ZM1331.29 1634.94L1460.75 1559.71L1412.69 1456.94L1235.06 1429.4L1105.6 1504.64L1153.76 1607.41L1331.29 1634.94ZM1375.55 1746.06L1327.43 1643.27L1149.86 1615.76L1020.39 1691L1068.51 1793.74L1246.08 1821.3L1375.55 1746.06ZM1095.05 1498.55L1224.52 1423.32L1176.46 1320.55L998.828 1293.01L869.364 1368.25L917.53 1471.02L1095.05 1498.55ZM1737.94 1398.62L1867.46 1323.35L1819.34 1220.62L1641.77 1193.05L1512.25 1268.32L1560.42 1371.09L1737.94 1398.62ZM1782.25 1509.71L1734.09 1406.94L1556.56 1379.41L1427.05 1454.68L1475.16 1557.42L1652.74 1584.98L1782.25 1509.71ZM1501.71 1262.23L1631.22 1186.96L1583.11 1084.23L1405.53 1056.66L1276.02 1131.93L1324.18 1234.7L1501.71 1262.23ZM1139.31 1609.68L1091.25 1506.91L913.624 1479.37L784.16 1554.61L832.326 1657.38L1009.85 1684.91L1139.31 1609.68ZM3842.48 2228.08L3794.31 2125.31L3616.79 2097.78L3487.27 2173.04L3535.38 2275.78L3712.96 2303.35L3842.48 2228.08ZM3798.19 2116.99L3927.69 2041.73L3903.61 1990.34L3879.53 1938.96L3702 1911.43L3572.5 1986.68L3620.6 2089.43L3798.19 2116.99ZM3029.12 2700.75L2981 2597.95L2803.43 2570.45L2673.96 2645.69L2722.07 2748.43L2899.65 2775.99L3029.12 2700.75ZM2380.84 1298.68L2510.34 1223.42L2473.63 1145L2462.18 1120.65L2284.65 1093.12L2155.15 1168.38L2203.25 1271.13L2380.84 1298.68ZM2352.52 2695.66L2400.64 2798.4L2578.21 2825.96L2707.68 2750.72L2659.57 2647.92L2481.99 2620.42L2352.52 2695.66ZM2556.65 2427.97L2508.59 2325.2L2330.96 2297.67L2201.49 2372.91L2249.66 2475.68L2427.18 2503.21L2556.65 2427.97ZM1952.67 1137L1904.56 1034.26L1726.98 1006.7L1597.47 1081.97L1645.63 1184.74L1823.16 1212.27L1952.67 1137ZM2984.87 2589.64L3114.33 2514.4L3066.22 2411.6L2888.64 2384.1L2759.18 2459.34L2807.29 2562.07L2984.87 2589.64ZM1567.52 1771.33L1696.98 1696.1L1648.87 1593.3L1471.29 1565.79L1341.83 1641.03L1389.94 1743.77L1567.52 1771.33ZM3370.01 1955.3L3321.9 1852.56L3144.32 1825L3014.8 1900.27L3062.97 2003.03L3240.49 2030.57L3370.01 1955.3ZM935.177 1877.35L983.29 1980.09L1160.87 2007.65L1290.33 1932.42L1242.22 1829.62L1064.64 1802.11L935.177 1877.35ZM1546.02 1373.32L1497.91 1270.58L1320.33 1243.02L1190.81 1318.29L1238.98 1421.06L1416.5 1448.59L1546.02 1373.32ZM3435.82 2464.4L3387.66 2361.63L3210.13 2334.1L3080.61 2409.37L3128.73 2512.1L3306.31 2539.67L3435.82 2464.4ZM2963.35 2191.62L2915.24 2088.88L2737.66 2061.32L2608.15 2136.59L2656.31 2239.36L2833.84 2266.89L2963.35 2191.62ZM3391.52 2353.32L3521.04 2278.05L3472.87 2175.28L3295.35 2147.75L3165.83 2223.01L3213.94 2325.75L3391.52 2353.32ZM1974.17 1535.01L2103.69 1459.74L2055.53 1356.97L1878 1329.44L1748.48 1404.71L1796.6 1507.45L1974.17 1535.01ZM2748.63 2453.25L2878.1 2378.01L2830.04 2275.24L2652.41 2247.71L2522.94 2322.95L2571.11 2425.72L2748.63 2453.25ZM2116.29 2559.27L2164.46 2662.04L2341.98 2689.57L2471.45 2614.33L2423.39 2511.56L2245.75 2484.03L2116.29 2559.27ZM3561.96 1980.6L3691.46 1905.34L3651.16 1819.35L3643.35 1802.6L3554.56 1788.81L3465.77 1775.04L3336.26 1850.3L3384.42 1953.07L3561.96 1980.6ZM3155.29 2216.93L3284.81 2141.66L3236.69 2038.92L3059.12 2011.36L2929.6 2086.62L2977.76 2189.39L3155.29 2216.93ZM2160.54 2670.38L2031.07 2745.62L2079.2 2848.37L2256.76 2875.92L2386.23 2800.68L2338.12 2697.9L2160.54 2670.38ZM743.204 1852.08L613.74 1927.32L661.853 2030.06L839.43 2057.62L968.894 1982.39L920.768 1879.59L743.204 1852.08ZM1924.3 2533.99L1794.84 2609.23L1843.01 2712L2020.53 2739.53L2150 2664.3L2101.92 2561.53L1924.3 2533.99ZM2396.77 2806.77L2267.31 2882.01L2315.42 2984.75L2493 3012.31L2622.46 2937.07L2574.34 2834.28L2396.77 2806.77ZM506.971 1715.69L377.506 1790.93L425.673 1893.7L603.197 1921.23L732.661 1846L684.587 1743.24L506.971 1715.69Z"/>
</mask>
<path d="M5006.86 2104.85L5059.45 2217.19L4920.98 2297.67L4732.09 2270.59L4602.53 2345.88L4652.89 2453.46L4514.36 2533.97L4325.47 2506.89L4195.88 2582.2L4246.24 2689.78L4107.71 2770.29L3918.82 2743.21L3789.22 2818.53L3839.58 2926.1L3701.05 3006.61L3512.16 2979.53L3382.52 3054.88L3432.93 3162.43L3294.4 3242.93L3105.51 3215.86L2975.86 3291.2L3026.26 3398.75L2887.73 3479.26L2698.86 3452.18L2569.2 3527.53L2619.56 3635.11L2481.08 3715.58L2292.19 3688.51L2162.54 3763.85L2212.9 3871.43L2074.43 3951.9L1885.54 3924.83L1752.98 4001.86L1555.84 3973.51L1505.44 3865.97L1319.61 3837.12L1269.21 3729.58L1083.38 3700.73L1032.98 3593.19L847.157 3564.35L796.797 3456.83L610.964 3427.98L560.564 3320.44L374.73 3291.59L324.33 3184.05L138.497 3155.21L88.0966 3047.67L-97.7232 3018.82L-148.137 2911.28L-333.957 2882.43L-384.37 2774.89L-570.19 2746.04L-620.551 2638.53L-806.37 2609.69L-856.784 2502.14L-1042.6 2473.3L-1093.02 2365.75L-1278.84 2336.91L-1331.43 2224.56L-1195.87 2145.78L-1246.23 2038.2L-1104.75 1955.98L-918.863 1984.8L-789.215 1909.46L-839.576 1801.88L-698.095 1719.66L-512.209 1748.48L-382.548 1673.13L-432.922 1565.56L-291.389 1483.31L-105.543 1512.15L24.1059 1436.81L-26.2551 1329.23L115.278 1246.98L301.111 1275.83L430.759 1200.48L380.399 1092.91L521.932 1010.66L707.817 1039.48L837.413 964.163L787.052 856.585L928.585 774.335L1114.47 803.154L1244.07 727.842L1193.71 620.264L1335.24 538.014L1521.12 566.833L1650.68 491.543L1600.27 383.996L1741.8 301.746L1935.93 331.844L1986.29 439.422L2172.16 468.234L2222.52 575.811L2408.4 604.623L2458.76 712.201L2644.63 741.012L2694.94 848.56L2880.81 877.371L2931.17 984.949L3117.04 1013.76L3167.4 1121.34L3353.28 1150.15L3403.62 1257.72L3589.51 1286.54L3639.86 1394.11L3825.74 1422.93L3876.09 1530.5L4061.98 1559.32L4112.28 1666.87L4298.16 1695.68L4348.5 1803.25L4534.39 1832.07L4584.74 1939.64L4770.62 1968.46L4820.97 2076.03L5006.86 2104.85ZM4485.27 2128.2L4437.16 2025.4L4259.53 1997.87L4130.06 2073.1L4178.18 2175.9L4355.81 2203.44L4485.27 2128.2ZM4344.74 1811.52L4215.28 1886.75L4263.39 1989.55L4441.02 2017.09L4570.49 1941.85L4522.37 1839.05L4344.74 1811.52ZM3636.1 1402.38L3506.63 1477.62L3554.75 1580.42L3732.38 1607.95L3861.84 1532.71L3813.73 1429.91L3636.1 1402.38ZM3540.39 1582.67L3492.28 1479.87L3314.65 1452.34L3185.18 1527.58L3209.23 1578.99L3233.3 1630.38L3308.14 1641.98L3410.93 1657.91L3540.39 1582.67ZM3399.86 1265.99L3270.4 1341.23L3318.51 1444.03L3496.14 1471.56L3625.61 1396.32L3577.49 1293.52L3399.86 1265.99ZM3163.63 1129.6L3034.17 1204.84L3082.28 1307.64L3259.91 1335.17L3389.37 1259.93L3341.26 1157.13L3163.63 1129.6ZM4580.98 1947.91L4451.51 2023.14L4499.63 2125.94L4677.26 2153.48L4806.72 2078.24L4758.61 1975.44L4580.98 1947.91ZM2927.4 993.211L2797.93 1068.45L2846.05 1171.25L3023.68 1198.78L3153.14 1123.54L3105.03 1020.74L2927.4 993.211ZM2831.7 1173.51L2783.59 1070.71L2605.96 1043.18L2476.5 1118.42L2511.2 1192.53L2524.61 1221.22L2702.24 1248.75L2831.7 1173.51ZM2123.06 764.376L2074.94 661.576L1897.31 634.043L1767.85 709.279L1791.88 760.687L1815.96 812.079L1937.14 830.845L1993.59 839.612L2123.06 764.376ZM1982.52 447.684L1853.05 522.92L1901.16 625.72L2078.8 653.253L2208.26 578.017L2160.15 475.217L1982.52 447.684ZM1886.82 627.986L1838.71 525.186L1661.08 497.653L1531.61 572.89L1555.64 624.297L1579.73 675.69L1757.36 703.223L1886.82 627.986ZM-1089.19 2357.46L-959.727 2282.22L-1007.84 2179.42L-1185.47 2151.89L-1314.93 2227.12L-1266.82 2329.92L-1089.19 2357.46ZM-852.958 2493.85L-723.494 2418.61L-771.607 2315.81L-949.237 2288.28L-1078.7 2363.51L-1030.59 2466.31L-852.958 2493.85ZM-144.31 2902.98L-14.8464 2827.75L-62.9596 2724.95L-240.59 2697.41L-370.054 2772.65L-321.94 2875.45L-144.31 2902.98ZM-48.6169 2722.68L-0.503508 2825.48L177.127 2853.01L306.591 2777.78L258.477 2674.98L80.8472 2647.44L-48.6169 2722.68ZM187.616 2859.07L235.73 2961.87L413.36 2989.4L542.824 2914.17L494.711 2811.37L317.081 2783.83L187.616 2859.07ZM423.85 2995.46L471.963 3098.26L649.593 3125.79L779.057 3050.56L730.944 2947.76L553.314 2920.22L423.85 2995.46ZM564.377 3312.14L693.841 3236.91L645.727 3134.11L468.097 3106.57L338.633 3181.81L386.747 3284.61L564.377 3312.14ZM-993.498 2177.15L-945.384 2279.95L-767.754 2307.49L-638.29 2232.25L-686.403 2129.45L-864.033 2101.92L-993.498 2177.15ZM660.083 3131.85L708.197 3234.65L885.827 3262.18L1015.29 3186.95L967.178 3084.15L789.548 3056.61L660.083 3131.85ZM1368.73 3540.99L1416.84 3643.79L1594.47 3671.32L1723.94 3596.08L1675.82 3493.28L1498.19 3465.75L1368.73 3540.99ZM1509.26 3857.67L1638.72 3782.44L1590.61 3679.63L1412.98 3652.1L1283.51 3727.34L1331.63 3830.14L1509.26 3857.67ZM1604.96 3677.38L1653.08 3780.18L1830.71 3807.71L1960.17 3732.47L1912.06 3629.67L1734.43 3602.14L1604.96 3677.38ZM166.064 2461.09L36.5999 2536.33L84.7132 2639.13L262.343 2666.66L391.807 2591.43L343.694 2488.63L166.064 2461.09ZM1819.63 3415.78L1690.17 3491.02L1738.28 3593.82L1915.91 3621.35L2045.38 3546.11L1997.26 3443.31L1819.63 3415.78ZM-553.073 2045.9L-601.187 1943.1L-778.817 1915.57L-908.281 1990.8L-860.167 2093.6L-682.537 2121.14L-553.073 2045.9ZM-542.583 2051.96L-672.047 2127.19L-623.934 2229.99L-446.304 2257.52L-316.84 2182.29L-364.953 2079.49L-542.583 2051.96ZM874.751 2870.25L745.287 2945.49L793.4 3048.29L971.03 3075.82L1100.49 3000.59L1052.38 2897.79L874.751 2870.25ZM4721.5 2264.59L4673.39 2161.79L4495.76 2134.26L4366.3 2209.49L4381.71 2242.43L4414.41 2312.29L4558.7 2334.67L4592.04 2339.83L4721.5 2264.59ZM1745.49 3994.06L1874.95 3918.82L1826.84 3816.02L1649.21 3788.49L1519.75 3863.73L1567.86 3966.53L1745.49 3994.06ZM2055.87 3552.17L1926.4 3627.41L1974.51 3730.21L2152.14 3757.74L2281.61 3682.5L2233.5 3579.7L2055.87 3552.17ZM830.504 2759.14L878.63 2861.93L1056.25 2889.47L1185.71 2814.24L1137.6 2711.44L959.968 2683.9L830.504 2759.14ZM594.27 2622.75L642.397 2725.54L820.014 2753.08L949.478 2677.85L901.364 2575.05L723.734 2547.51L594.27 2622.75ZM358.037 2486.36L406.163 2589.15L583.78 2616.69L713.244 2541.46L665.131 2438.66L487.501 2411.12L358.037 2486.36ZM1775.38 3304.67L1823.51 3407.46L2001.13 3435L2130.59 3359.76L2082.48 3256.96L1904.85 3229.43L1775.38 3304.67ZM2011.62 3441.06L2059.74 3543.85L2237.36 3571.39L2366.83 3496.15L2318.71 3393.35L2141.08 3365.82L2011.62 3441.06ZM-586.844 1940.83L-538.717 2043.62L-361.101 2071.17L-231.637 1995.93L-279.75 1893.13L-457.38 1865.6L-586.844 1940.83ZM1281.4 2633.93L1151.94 2709.17L1200.07 2811.96L1377.68 2839.5L1507.15 2764.27L1459.03 2661.47L1281.4 2633.93ZM1066.74 2895.53L1114.86 2998.32L1292.48 3025.86L1421.94 2950.62L1373.83 2847.82L1196.2 2820.29L1066.74 2895.53ZM-146.42 1809.58L-194.533 1706.78L-372.163 1679.24L-501.627 1754.48L-453.501 1857.27L-275.884 1884.81L-146.42 1809.58ZM-135.93 1815.63L-265.394 1890.87L-217.267 1993.66L-39.6504 2021.2L89.8136 1945.97L41.7004 1843.17L-135.93 1815.63ZM2226.29 3179.46L2096.82 3254.7L2144.95 3357.49L2322.56 3385.03L2452.03 3309.79L2403.92 3206.99L2226.29 3179.46ZM572.718 2224.77L443.254 2300.01L491.38 2402.8L668.997 2430.34L798.461 2355.1L750.348 2252.3L572.718 2224.77ZM1473.4 2659.2L1521.52 2762L1699.15 2789.53L1828.61 2714.3L1780.49 2611.5L1602.87 2583.96L1473.4 2659.2ZM175.03 1759.6L126.904 1656.81L-50.713 1629.27L-180.177 1704.5L-132.064 1807.3L45.5663 1834.84L175.03 1759.6ZM1237.17 2522.81L1285.28 2625.61L1462.91 2653.14L1592.38 2577.91L1544.25 2475.11L1366.63 2447.57L1237.17 2522.81ZM1000.94 2386.42L1049.05 2489.22L1226.68 2516.75L1356.14 2441.52L1308.02 2338.72L1130.4 2311.18L1000.94 2386.42ZM764.704 2250.03L812.817 2352.83L990.447 2380.36L1119.91 2305.13L1071.78 2202.34L894.168 2174.79L764.704 2250.03ZM2182.05 3068.34L2230.16 3171.14L2407.79 3198.67L2537.26 3123.43L2489.13 3020.64L2311.52 2993.1L2182.05 3068.34ZM2418.28 3204.73L2466.4 3307.53L2644.03 3335.06L2773.49 3259.82L2725.37 3157.03L2547.75 3129.49L2418.28 3204.73ZM2333.05 3391.09L2381.18 3493.88L2558.8 3521.42L2688.26 3446.18L2640.15 3343.38L2462.52 3315.85L2333.05 3391.09ZM4913.48 2289.86L5042.94 2214.62L4994.84 2111.83L4817.21 2084.3L4687.75 2159.53L4735.86 2262.33L4913.48 2289.86ZM2196.39 3868.86L2148.29 3766.06L1970.66 3738.53L1841.2 3813.77L1889.31 3916.57L2066.93 3944.09L2196.39 3868.86ZM3304.16 1446.28L3256.04 1343.48L3078.43 1315.96L2948.96 1391.2L2972.99 1442.6L2997.06 1493.99L3174.69 1521.52L3304.16 1446.28ZM638.531 2733.87L509.067 2809.11L557.167 2911.9L734.797 2939.43L864.261 2864.2L816.148 2761.4L638.531 2733.87ZM328.143 3175.75L457.607 3100.52L409.494 2997.72L231.877 2970.19L102.413 3045.43L150.513 3148.22L328.143 3175.75ZM1616.83 386.538L1664.93 489.33L1842.56 516.863L1972.03 441.627L1923.91 338.827L1746.3 311.302L1616.83 386.538ZM-1229.72 2040.77L-1181.62 2143.56L-1003.99 2171.1L-874.524 2095.86L-922.637 1993.06L-1100.25 1965.54L-1229.72 2040.77ZM3067.92 1309.9L3019.82 1207.1L2842.19 1179.57L2712.73 1254.81L2747.44 1328.86L2760.84 1357.61L2938.46 1385.13L3067.92 1309.9ZM91.9098 3039.37L221.374 2964.13L173.274 2861.34L-4.35625 2833.8L-133.82 2909.04L-85.7071 3011.84L91.9098 3039.37ZM402.297 2597.48L272.833 2672.72L320.947 2775.52L498.563 2803.04L628.028 2727.81L579.927 2625.02L402.297 2597.48ZM2603.05 3632.53L2554.95 3529.74L2377.32 3502.21L2247.85 3577.44L2295.98 3680.24L2473.58 3707.77L2603.05 3632.53ZM3009.71 3396.2L2961.6 3293.42L2783.98 3265.88L2654.52 3341.12L2702.63 3443.92L2880.25 3471.44L3009.71 3396.2ZM1045.18 2497.55L915.72 2572.79L963.834 2675.57L1141.45 2703.11L1270.91 2627.88L1222.8 2525.08L1045.18 2497.55ZM-823.064 1804.45L-774.951 1907.24L-597.334 1934.78L-467.87 1859.54L-515.983 1756.74L-693.6 1729.21L-823.064 1804.45ZM808.951 2361.16L679.487 2436.4L727.613 2539.19L905.217 2566.72L1034.68 2491.49L986.581 2388.69L808.951 2361.16ZM-416.397 1568.12L-368.297 1670.91L-190.667 1698.45L-61.2031 1623.21L-109.33 1520.42L-286.933 1492.89L-416.397 1568.12ZM1672.19 889.544L1801.7 814.284L1753.53 711.515L1664.76 697.733L1575.95 683.951L1446.45 759.211L1494.6 861.988L1672.19 889.544ZM1716.49 1000.64L1668.33 897.874L1490.75 870.31L1361.23 945.577L1409.4 1048.35L1586.98 1075.91L1716.49 1000.64ZM666.901 1336.93L618.787 1234.13L441.157 1206.59L311.693 1281.83L359.859 1384.6L537.437 1412.16L666.901 1336.93ZM2512.45 2316.89L2641.92 2241.65L2593.81 2138.85L2416.18 2111.32L2286.71 2186.56L2334.88 2289.33L2512.45 2316.89ZM581.684 1523.28L533.571 1420.48L355.941 1392.95L226.477 1468.18L274.643 1570.95L452.22 1598.52L581.684 1523.28ZM988.338 1286.96L940.224 1184.16L762.594 1156.62L633.13 1231.86L681.296 1334.63L858.874 1362.19L988.338 1286.96ZM2588.7 2832.02L2636.87 2934.78L2814.45 2962.35L2943.91 2887.11L2895.8 2784.31L2718.17 2756.78L2588.7 2832.02ZM1480.26 864.254L1432.09 761.485L1254.52 733.921L1125 809.188L1173.17 911.957L1350.74 939.521L1480.26 864.254ZM903.134 1473.32L855.021 1370.52L677.391 1342.98L547.927 1418.22L596.093 1520.99L773.67 1548.55L903.134 1473.32ZM1880.06 2422.88L1928.22 2525.65L2105.8 2553.21L2235.27 2477.97L2187.15 2375.17L2009.52 2347.64L1880.06 2422.88ZM2995.36 2595.69L3043.52 2698.46L3221.1 2726.03L3350.57 2650.79L3302.45 2547.99L3124.82 2520.46L2995.36 2595.69ZM2276.22 2180.5L2405.69 2105.26L2357.57 2002.46L2179.94 1974.93L2050.48 2050.17L2098.64 2152.94L2276.22 2180.5ZM2425.14 1409.78L2376.98 1307.01L2199.4 1279.45L2069.88 1354.72L2118.05 1457.48L2295.62 1485.05L2425.14 1409.78ZM2853.31 1571.46L2982.81 1496.2L2934.65 1393.43L2757.07 1365.87L2627.57 1441.13L2675.72 1543.9L2853.31 1571.46ZM3089.54 1707.85L3219.05 1632.59L3170.88 1529.82L2993.3 1502.26L2863.8 1577.52L2911.95 1680.29L3089.54 1707.85ZM3133.83 1818.94L3085.66 1716.17L2908.09 1688.61L2778.57 1763.88L2826.73 1866.65L3004.31 1894.21L3133.83 1818.94ZM3325.78 1844.24L3455.28 1768.98L3407.11 1666.21L3318.32 1652.42L3229.54 1638.65L3100.03 1713.91L3148.18 1816.68L3325.78 1844.24ZM2039.99 2044.11L2169.45 1968.87L2121.34 1866.07L1943.71 1838.54L1814.24 1913.78L1862.41 2016.55L2039.99 2044.11ZM1803.75 1907.72L1933.22 1832.48L1885.11 1729.68L1707.48 1702.15L1578.01 1777.39L1626.18 1880.16L1803.75 1907.72ZM1611.78 1882.45L1563.67 1779.65L1386.04 1752.12L1256.57 1827.36L1304.74 1930.13L1482.32 1957.69L1611.78 1882.45ZM1643.82 2286.49L1691.99 2389.26L1869.57 2416.82L1999.03 2341.58L1950.92 2238.78L1773.29 2211.25L1643.82 2286.49ZM2910.14 2782.05L2958.31 2884.81L3135.89 2912.38L3265.35 2837.14L3217.24 2734.34L3039.61 2706.81L2910.14 2782.05ZM2824.94 2968.4L2873.1 3071.17L3050.68 3098.74L3180.15 3023.5L3132.03 2920.7L2954.4 2893.17L2824.94 2968.4ZM3231.59 2732.08L3279.76 2834.85L3457.33 2862.42L3586.8 2787.18L3538.69 2684.38L3361.06 2656.85L3231.59 2732.08ZM2617.07 1435.07L2746.58 1359.81L2706.28 1273.83L2698.41 1257.04L2609.64 1243.26L2520.84 1229.48L2391.33 1304.74L2439.48 1407.51L2617.07 1435.07ZM4044.91 2259.43L4093.06 2362.21L4270.66 2389.77L4400.16 2314.51L4362.34 2233.81L4351.99 2211.74L4285.09 2201.33L4174.42 2184.17L4044.91 2259.43ZM4078.71 2364.47L4030.54 2261.7L3852.97 2234.14L3723.45 2309.4L3771.61 2412.17L3949.19 2439.74L4078.71 2364.47ZM4034.42 2253.38L4163.93 2178.12L4121.81 2088.2L4115.76 2075.35L4071.58 2068.5L3938.18 2047.78L3808.68 2123.04L3856.83 2225.82L4034.42 2253.38ZM1407.59 2150.1L1455.76 2252.87L1633.33 2280.43L1762.8 2205.2L1714.68 2102.4L1537.05 2074.86L1407.59 2150.1ZM2320.47 2291.61L2272.36 2188.82L2094.73 2161.28L1965.26 2236.52L2013.43 2339.29L2191 2366.85L2320.47 2291.61ZM1171.36 2013.71L1219.52 2116.48L1397.1 2144.04L1526.56 2068.81L1478.45 1966.01L1300.82 1938.47L1171.36 2013.71ZM3627.76 2489.71L3757.27 2414.44L3709.11 2311.67L3531.53 2284.11L3402.01 2359.37L3450.18 2462.14L3627.76 2489.71ZM2446.64 1807.79L2576.16 1732.52L2527.99 1629.75L2350.41 1602.19L2220.9 1677.46L2269.06 1780.23L2446.64 1807.79ZM2210.41 1671.4L2339.92 1596.13L2291.76 1493.36L2114.18 1465.8L1984.66 1541.07L2032.83 1643.84L2210.41 1671.4ZM2018.49 1646.1L1970.32 1543.33L1792.74 1515.77L1663.23 1591.04L1711.39 1693.81L1888.97 1721.37L2018.49 1646.1ZM1309.84 1236.96L1261.67 1134.2L1084.1 1106.63L954.581 1181.9L1002.75 1284.67L1180.32 1312.23L1309.84 1236.96ZM1265.53 1125.87L1395.04 1050.61L1346.88 947.836L1169.3 920.273L1039.78 995.54L1087.95 1098.31L1265.53 1125.87ZM3316.8 2545.72L3364.96 2648.49L3542.54 2676.06L3672.06 2600.79L3623.89 2498.02L3446.31 2470.46L3316.8 2545.72ZM2682.87 1944.18L2812.39 1868.91L2764.23 1766.14L2586.65 1738.58L2457.13 1813.85L2505.3 1916.61L2682.87 1944.18ZM1073.61 1100.58L1025.44 997.806L847.864 970.242L718.347 1045.51L766.513 1148.28L944.09 1175.84L1073.61 1100.58ZM2727.17 2055.26L2679.01 1952.49L2501.43 1924.93L2371.91 2000.2L2420.08 2102.97L2597.66 2130.53L2727.17 2055.26ZM2919.11 2080.57L3048.62 2005.3L3000.46 1902.53L2822.88 1874.97L2693.36 1950.24L2741.53 2053L2919.11 2080.57ZM3638.25 2495.76L3686.41 2598.53L3863.99 2626.1L3993.51 2550.83L3945.34 2448.06L3767.76 2420.5L3638.25 2495.76ZM3146.38 2918.44L3194.54 3021.2L3372.12 3048.77L3501.58 2973.53L3453.47 2870.73L3275.84 2843.2L3146.38 2918.44ZM3959.68 2445.79L4007.85 2548.56L4185.43 2576.13L4314.94 2500.86L4266.78 2398.09L4089.2 2370.53L3959.68 2445.79ZM3553.03 2682.11L3601.19 2784.88L3778.77 2812.45L3908.29 2737.18L3860.12 2634.41L3682.55 2606.85L3553.03 2682.11ZM4012.8 1855.42L3964.7 1752.63L3787.11 1725.12L3657.65 1800.36L3681.69 1851.77L3705.72 1903.13L3850.05 1925.53L3883.34 1930.66L4012.8 1855.42ZM1036.79 3584.89L1166.25 3509.66L1118.15 3406.86L940.564 3379.35L811.1 3454.59L859.174 3557.37L1036.79 3584.89ZM1347.22 3143.03L1217.75 3218.27L1265.83 3321.05L1443.44 3348.57L1572.91 3273.33L1524.81 3170.54L1347.22 3143.03ZM2595.47 1037.12L2547.36 934.324L2369.78 906.822L2240.31 982.058L2288.38 1084.83L2409.56 1103.6L2466.01 1112.36L2595.47 1037.12ZM-757.264 2313.54L-709.151 2416.34L-531.574 2443.85L-402.11 2368.61L-450.17 2265.84L-627.8 2238.31L-757.264 2313.54ZM-380.544 2766.59L-251.08 2691.36L-299.193 2588.56L-476.77 2561.06L-606.234 2636.29L-558.174 2739.06L-380.544 2766.59ZM2218.75 584.073L2089.29 659.309L2137.4 762.109L2314.98 789.612L2444.44 714.375L2396.38 611.606L2218.75 584.073ZM2454.98 720.463L2325.52 795.699L2373.63 898.499L2551.21 926.001L2680.67 850.765L2632.61 747.996L2454.98 720.463ZM-521.031 2449.93L-472.917 2552.73L-295.34 2580.24L-165.876 2505L-213.937 2402.23L-391.567 2374.7L-521.031 2449.93ZM-70.1164 2324.73L-199.58 2399.97L-151.52 2502.74L26.1097 2530.27L155.574 2455.04L107.461 2352.24L-70.1164 2324.73ZM2359.24 900.735L2311.18 797.965L2133.55 770.432L2004.08 845.669L2052.19 948.468L2173.33 967.212L2229.77 975.971L2359.24 900.735ZM4249.04 1991.81L4200.92 1889.01L4023.35 1861.51L3893.88 1936.75L3917.87 1988.13L3941.94 2039.52L4086.29 2061.92L4119.57 2067.05L4249.04 1991.81ZM3776.57 1719.03L3728.51 1616.26L3550.88 1588.73L3421.42 1663.97L3445.46 1715.38L3469.53 1766.77L3647.11 1794.27L3776.57 1719.03ZM4108.56 1675.16L3979.1 1750.39L4027.16 1853.16L4204.79 1880.7L4334.25 1805.46L4286.14 1702.66L4108.56 1675.16ZM2691.22 856.852L2561.75 932.088L2609.81 1034.86L2787.44 1062.39L2916.91 987.154L2868.79 884.354L2691.22 856.852ZM1583.45 3279.42L1453.99 3354.66L1502.05 3457.43L1679.68 3484.96L1809.14 3409.72L1761.03 3306.92L1583.45 3279.42ZM-306.35 2188.34L-435.814 2263.58L-387.701 2366.38L-210.124 2393.88L-80.6596 2318.65L-128.72 2215.88L-306.35 2188.34ZM1273.02 3721.28L1402.49 3646.05L1354.37 3543.25L1176.8 3515.74L1047.33 3590.98L1095.39 3693.75L1273.02 3721.28ZM1110.98 3006.64L981.52 3081.88L1029.63 3184.68L1207.21 3212.18L1336.67 3136.95L1288.61 3034.18L1110.98 3006.64ZM800.557 3448.5L930.021 3373.27L881.961 3270.5L704.331 3242.96L574.867 3318.2L622.98 3421L800.557 3448.5ZM-284.797 2586.32L-236.737 2689.09L-59.1069 2716.62L70.3572 2641.39L22.2438 2538.59L-155.333 2511.09L-284.797 2586.32ZM-616.777 2630.2L-487.313 2554.97L-535.373 2452.2L-713.003 2424.67L-842.468 2499.9L-794.354 2602.7L-616.777 2630.2ZM1132.55 3404.63L1180.61 3507.4L1358.24 3534.93L1487.7 3459.69L1439.59 3356.89L1262.01 3329.39L1132.55 3404.63ZM3872.33 1538.77L3742.87 1614L3790.98 1716.81L3968.56 1744.31L4098.02 1669.07L4049.96 1566.3L3872.33 1538.77ZM896.317 3268.24L944.43 3371.04L1122.01 3398.54L1251.47 3323.3L1203.41 3220.54L1025.78 3193L896.317 3268.24ZM979.384 1988.44L849.92 2063.68L898.086 2166.45L1075.66 2194.01L1205.13 2118.78L1157 2015.98L979.384 1988.44ZM2632.95 2943.13L2503.49 3018.37L2551.65 3121.14L2729.23 3148.7L2858.7 3073.46L2810.57 2970.67L2632.95 2943.13ZM260.247 1573.25L212.121 1470.46L34.5037 1442.92L-94.9604 1518.15L-46.7944 1620.92L130.783 1648.48L260.247 1573.25ZM496.48 1709.64L448.354 1606.85L270.737 1579.31L141.273 1654.54L189.439 1757.31L367.016 1784.87L496.48 1709.64ZM1688.07 2397.6L1558.61 2472.84L1606.77 2575.61L1784.35 2603.17L1913.81 2527.94L1865.69 2425.14L1688.07 2397.6ZM2739.72 3154.76L2787.89 3257.53L2965.46 3285.09L3094.93 3209.85L3046.8 3107.06L2869.19 3079.52L2739.72 3154.76ZM4636.38 2450.89L4588.23 2348.13L4410.65 2320.56L4281.15 2395.82L4329.3 2498.6L4506.88 2526.15L4636.38 2450.89ZM3416.37 3159.88L3368.27 3057.09L3190.64 3029.56L3061.17 3104.79L3109.34 3207.56L3286.9 3235.12L3416.37 3159.88ZM3823.02 2923.56L3774.92 2820.77L3597.29 2793.24L3467.83 2868.47L3515.99 2971.24L3693.56 2998.8L3823.02 2923.56ZM4229.73 2687.21L4181.57 2584.45L4004 2556.88L3874.48 2632.15L3922.65 2734.92L4100.21 2762.48L4229.73 2687.21ZM2084.23 2155.23L2036.12 2052.43L1858.5 2024.9L1729.04 2100.14L1777.19 2202.9L1954.77 2230.46L2084.23 2155.23ZM2897.6 1682.55L2849.43 1579.78L2671.86 1552.23L2542.35 1627.49L2590.5 1730.26L2768.08 1757.82L2897.6 1682.55ZM396.91 1095.48L445.063 1198.24L622.64 1225.8L752.104 1150.57L703.991 1047.77L526.374 1020.24L396.91 1095.48ZM2490.94 1918.87L2442.78 1816.1L2265.21 1788.55L2135.69 1863.82L2183.85 1966.58L2361.42 1994.14L2490.94 1918.87ZM-9.74362 1331.8L38.4092 1434.56L215.986 1462.13L345.451 1386.89L297.337 1284.09L119.72 1256.56L-9.74362 1331.8ZM1210.23 622.829L1258.37 725.598L1435.96 753.154L1565.46 677.895L1517.3 575.126L1339.73 547.57L1210.23 622.829ZM803.564 859.158L851.717 961.919L1029.29 989.483L1158.81 914.216L1110.64 811.447L933.08 783.891L803.564 859.158ZM1848 2018.84L1799.9 1916.04L1622.27 1888.51L1492.81 1963.75L1540.97 2066.52L1718.54 2094.07L1848 2018.84ZM2661.36 1546.16L2613.21 1443.4L2435.63 1415.84L2306.11 1491.1L2354.28 1593.87L2531.84 1621.43L2661.36 1546.16ZM2254.71 1782.48L2206.56 1679.72L2028.98 1652.16L1899.46 1727.43L1947.63 1830.2L2125.19 1857.75L2254.71 1782.48ZM1753.87 2906.71L1624.41 2981.95L1672.49 3084.72L1850.1 3112.25L1979.56 3037.01L1931.46 2934.22L1753.87 2906.71ZM336.537 2088.41L207.073 2163.65L255.147 2266.41L432.763 2293.95L562.227 2218.72L514.114 2115.91L336.537 2088.41ZM-350.61 2077.22L-302.484 2180.01L-124.92 2207.52L4.54391 2132.29L-43.5163 2029.52L-221.146 2001.99L-350.61 2077.22ZM-114.377 2213.61L-66.2506 2316.4L111.313 2343.91L240.777 2268.68L192.717 2165.91L15.087 2138.38L-114.377 2213.61ZM100.304 1952.02L-29.1603 2027.26L18.9662 2130.05L196.53 2157.56L325.994 2082.33L277.934 1979.56L100.304 1952.02ZM1539.2 3168.31L1587.28 3271.07L1764.89 3298.61L1894.36 3223.37L1846.25 3120.57L1668.67 3093.07L1539.2 3168.31ZM121.856 2350L169.93 2452.76L347.547 2480.3L477.011 2405.07L428.897 2302.27L251.32 2274.76L121.856 2350ZM1990.11 3043.1L1860.64 3118.34L1908.71 3221.1L2086.33 3248.64L2215.8 3173.4L2167.68 3070.6L1990.11 3043.1ZM1517.64 2770.32L1388.17 2845.56L1436.3 2948.35L1613.86 2975.86L1743.33 2900.62L1695.27 2797.85L1517.64 2770.32ZM292.29 1977.28L340.403 2080.08L517.98 2107.58L647.444 2032.35L599.371 1929.59L421.754 1902.05L292.29 1977.28ZM56.0564 1840.89L104.17 1943.69L281.747 1971.2L411.211 1895.96L363.137 1793.2L185.52 1765.66L56.0564 1840.89ZM528.523 2113.67L576.583 2216.44L754.213 2243.97L883.678 2168.74L835.551 2065.95L657.987 2038.44L528.523 2113.67ZM1945.87 2931.98L1993.93 3034.75L2171.56 3062.28L2301.03 2987.04L2252.9 2884.25L2075.34 2856.74L1945.87 2931.98ZM1302.97 3031.92L1351.1 3134.71L1528.66 3162.22L1658.13 3086.98L1610.06 2984.21L1432.43 2956.68L1302.97 3031.92ZM1709.64 2795.59L1757.75 2898.39L1935.33 2925.89L2064.79 2850.65L2016.72 2747.89L1839.1 2720.35L1709.64 2795.59ZM1451.85 2261.22L1322.39 2336.46L1370.54 2439.22L1548.12 2466.78L1677.58 2391.55L1629.45 2288.75L1451.85 2261.22ZM1215.62 2124.83L1086.15 2200.07L1134.32 2302.84L1311.88 2330.39L1441.35 2255.16L1393.23 2152.37L1215.62 2124.83ZM2792.88 2564.36L2744.78 2461.57L2567.19 2434.06L2437.73 2509.3L2485.85 2612.04L2663.42 2639.6L2792.88 2564.36ZM3606.24 2091.69L3558.09 1988.93L3380.55 1961.39L3251.03 2036.65L3299.16 2139.4L3476.73 2166.96L3606.24 2091.69ZM3199.59 2328.01L3151.44 2225.25L2973.9 2197.71L2844.38 2272.98L2892.51 2375.72L3070.07 2403.28L3199.59 2328.01ZM698.943 1740.96L747.11 1843.73L924.634 1871.26L1054.1 1796.03L1006.04 1693.26L828.408 1665.72L698.943 1740.96ZM1908.37 1025.9L2037.88 950.643L2003.22 876.556L1989.76 847.904L1812.19 820.341L1682.68 895.6L1730.84 998.377L1908.37 1025.9ZM462.71 1604.57L510.876 1707.34L688.4 1734.87L817.864 1659.64L769.804 1556.87L592.174 1529.34L462.71 1604.57ZM2188.91 1273.39L2140.74 1170.62L1963.22 1143.09L1833.7 1218.36L1881.81 1321.1L2059.39 1348.66L2188.91 1273.39ZM2144.61 1162.29L2274.11 1087.03L2226 984.294L2048.42 956.73L1918.92 1031.99L1967.07 1134.77L2144.61 1162.29ZM1331.29 1634.94L1460.75 1559.71L1412.69 1456.94L1235.06 1429.4L1105.6 1504.64L1153.76 1607.41L1331.29 1634.94ZM1375.55 1746.06L1327.43 1643.27L1149.86 1615.76L1020.39 1691L1068.51 1793.74L1246.08 1821.3L1375.55 1746.06ZM1095.05 1498.55L1224.52 1423.32L1176.46 1320.55L998.828 1293.01L869.364 1368.25L917.53 1471.02L1095.05 1498.55ZM1737.94 1398.62L1867.46 1323.35L1819.34 1220.62L1641.77 1193.05L1512.25 1268.32L1560.42 1371.09L1737.94 1398.62ZM1782.25 1509.71L1734.09 1406.94L1556.56 1379.41L1427.05 1454.68L1475.16 1557.42L1652.74 1584.98L1782.25 1509.71ZM1501.71 1262.23L1631.22 1186.96L1583.11 1084.23L1405.53 1056.66L1276.02 1131.93L1324.18 1234.7L1501.71 1262.23ZM1139.31 1609.68L1091.25 1506.91L913.624 1479.37L784.16 1554.61L832.326 1657.38L1009.85 1684.91L1139.31 1609.68ZM3842.48 2228.08L3794.31 2125.31L3616.79 2097.78L3487.27 2173.04L3535.38 2275.78L3712.96 2303.35L3842.48 2228.08ZM3798.19 2116.99L3927.69 2041.73L3903.61 1990.34L3879.53 1938.96L3702 1911.43L3572.5 1986.68L3620.6 2089.43L3798.19 2116.99ZM3029.12 2700.75L2981 2597.95L2803.43 2570.45L2673.96 2645.69L2722.07 2748.43L2899.65 2775.99L3029.12 2700.75ZM2380.84 1298.68L2510.34 1223.42L2473.63 1145L2462.18 1120.65L2284.65 1093.12L2155.15 1168.38L2203.25 1271.13L2380.84 1298.68ZM2352.52 2695.66L2400.64 2798.4L2578.21 2825.96L2707.68 2750.72L2659.57 2647.92L2481.99 2620.42L2352.52 2695.66ZM2556.65 2427.97L2508.59 2325.2L2330.96 2297.67L2201.49 2372.91L2249.66 2475.68L2427.18 2503.21L2556.65 2427.97ZM1952.67 1137L1904.56 1034.26L1726.98 1006.7L1597.47 1081.97L1645.63 1184.74L1823.16 1212.27L1952.67 1137ZM2984.87 2589.64L3114.33 2514.4L3066.22 2411.6L2888.64 2384.1L2759.18 2459.34L2807.29 2562.07L2984.87 2589.64ZM1567.52 1771.33L1696.98 1696.1L1648.87 1593.3L1471.29 1565.79L1341.83 1641.03L1389.94 1743.77L1567.52 1771.33ZM3370.01 1955.3L3321.9 1852.56L3144.32 1825L3014.8 1900.27L3062.97 2003.03L3240.49 2030.57L3370.01 1955.3ZM935.177 1877.35L983.29 1980.09L1160.87 2007.65L1290.33 1932.42L1242.22 1829.62L1064.64 1802.11L935.177 1877.35ZM1546.02 1373.32L1497.91 1270.58L1320.33 1243.02L1190.81 1318.29L1238.98 1421.06L1416.5 1448.59L1546.02 1373.32ZM3435.82 2464.4L3387.66 2361.63L3210.13 2334.1L3080.61 2409.37L3128.73 2512.1L3306.31 2539.67L3435.82 2464.4ZM2963.35 2191.62L2915.24 2088.88L2737.66 2061.32L2608.15 2136.59L2656.31 2239.36L2833.84 2266.89L2963.35 2191.62ZM3391.52 2353.32L3521.04 2278.05L3472.87 2175.28L3295.35 2147.75L3165.83 2223.01L3213.94 2325.75L3391.52 2353.32ZM1974.17 1535.01L2103.69 1459.74L2055.53 1356.97L1878 1329.44L1748.48 1404.71L1796.6 1507.45L1974.17 1535.01ZM2748.63 2453.25L2878.1 2378.01L2830.04 2275.24L2652.41 2247.71L2522.94 2322.95L2571.11 2425.72L2748.63 2453.25ZM2116.29 2559.27L2164.46 2662.04L2341.98 2689.57L2471.45 2614.33L2423.39 2511.56L2245.75 2484.03L2116.29 2559.27ZM3561.96 1980.6L3691.46 1905.34L3651.16 1819.35L3643.35 1802.6L3554.56 1788.81L3465.77 1775.04L3336.26 1850.3L3384.42 1953.07L3561.96 1980.6ZM3155.29 2216.93L3284.81 2141.66L3236.69 2038.92L3059.12 2011.36L2929.6 2086.62L2977.76 2189.39L3155.29 2216.93ZM2160.54 2670.38L2031.07 2745.62L2079.2 2848.37L2256.76 2875.92L2386.23 2800.68L2338.12 2697.9L2160.54 2670.38ZM743.204 1852.08L613.74 1927.32L661.853 2030.06L839.43 2057.62L968.894 1982.39L920.768 1879.59L743.204 1852.08ZM1924.3 2533.99L1794.84 2609.23L1843.01 2712L2020.53 2739.53L2150 2664.3L2101.92 2561.53L1924.3 2533.99ZM2396.77 2806.77L2267.31 2882.01L2315.42 2984.75L2493 3012.31L2622.46 2937.07L2574.34 2834.28L2396.77 2806.77ZM506.971 1715.69L377.506 1790.93L425.673 1893.7L603.197 1921.23L732.661 1846L684.587 1743.24L506.971 1715.69Z" fill="url(#paint0_radial_6729_24608)" stroke="white" stroke-width="11.835" mask="url(#path-1-inside-1_6729_24608)"/>
</g>
</g>
<path d="M2783.91 2208.1C2782.65 2210.32 2779.84 2211.06 2777.61 2209.73L2142.74 1840.77L1507.86 2209.73C1505.72 2211.06 1502.83 2210.32 1501.57 2208.1C1500.31 2205.88 1501.05 2203.07 1503.27 2201.81L2133.63 1835.51L1503.27 1469.14C1501.05 1467.88 1500.31 1465.07 1501.57 1462.85C1502.83 1460.7 1505.72 1459.88 1507.86 1461.22L2142.74 1830.18L2777.61 1461.22C2779.84 1459.88 2782.65 1460.7 2783.91 1462.85C2785.24 1465.07 2784.5 1467.88 2782.28 1469.14L2151.92 1835.51L2782.28 2201.81C2784.5 2203.07 2785.24 2205.88 2783.91 2208.1Z" fill="url(#paint1_radial_6729_24608)"/>
<g opacity="0.2">
<path opacity="0.2" d="M2343.99 1345.96C2357.8 1353.93 2357.88 1366.86 2344.17 1374.83L2180.7 1469.83C2166.97 1477.81 2144.65 1477.8 2130.84 1469.83L1966.31 1374.84C1952.5 1366.86 1952.42 1353.94 1966.14 1345.96L2129.61 1250.96C2143.33 1242.99 2165.65 1242.99 2179.46 1250.97L2343.99 1345.96Z" fill="#86BFF2"/>
</g>
<g opacity="0.7">
<path opacity="0.7" d="M2343.99 1233.05C2357.8 1241.03 2357.88 1253.96 2344.17 1261.93L2180.7 1356.92C2166.97 1364.9 2144.65 1364.9 2130.84 1356.92L1966.31 1261.93C1952.5 1253.96 1952.42 1241.03 1966.14 1233.05L2129.61 1138.05C2143.33 1130.08 2165.65 1130.09 2179.46 1138.06L2343.99 1233.05Z" fill="#86BFF2"/>
</g>
<g opacity="0.2">
<path opacity="0.2" d="M3819.69 1488.7C3839.56 1500.17 3839.68 1518.78 3819.94 1530.25L3584.72 1666.94C3564.96 1678.42 3532.85 1678.41 3512.98 1666.94L3276.22 1530.25C3256.36 1518.78 3256.24 1500.17 3275.99 1488.69L3511.21 1352C3530.95 1340.53 3563.06 1340.54 3582.93 1352.01L3819.69 1488.7Z" fill="#86BFF2"/>
</g>
<path opacity="0.7" d="M3819.69 1375.8C3839.56 1387.27 3839.68 1405.87 3819.94 1417.34L3584.72 1554.04C3564.96 1565.52 3532.85 1565.51 3512.98 1554.04L3276.22 1417.35C3256.36 1405.88 3256.24 1387.27 3275.99 1375.79L3511.21 1239.1C3530.95 1227.63 3563.06 1227.64 3582.93 1239.11L3819.69 1375.8Z" fill="#7B8FDD"/>
<g opacity="0.2">
<path opacity="0.2" d="M3096.85 2851.17C3124.84 2867.34 3125.01 2893.55 3097.2 2909.71L2765.78 3102.31C2737.94 3118.49 2692.69 3118.48 2664.7 3102.31L2331.11 2909.72C2303.11 2893.55 2302.95 2867.34 2330.78 2851.17L2662.2 2658.57C2690.01 2642.4 2735.26 2642.41 2763.26 2658.58L3096.85 2851.17Z" fill="#86BFF2"/>
</g>
<path opacity="0.7" d="M3096.85 2738.26C3124.84 2754.42 3125.01 2780.63 3097.2 2796.8L2765.78 2989.4C2737.95 3005.57 2692.69 3005.56 2664.7 2989.4L2331.11 2796.8C2303.12 2780.64 2302.95 2754.43 2330.78 2738.25L2662.2 2545.65C2690.01 2529.49 2735.27 2529.5 2763.26 2545.66L3096.85 2738.26Z" fill="#CEA9D6"/>
<g opacity="0.2">
<path opacity="0.2" d="M2156.72 3156.51C2170.6 3164.52 2170.69 3177.53 2156.89 3185.54L1992.51 3281.07C1978.7 3289.09 1956.26 3289.09 1942.37 3281.07L1776.91 3185.54C1763.03 3177.53 1762.95 3164.53 1776.75 3156.5L1941.13 3060.97C1954.93 3052.96 1977.37 3052.96 1991.26 3060.98L2156.72 3156.51Z" fill="#86BFF2"/>
</g>
<g opacity="0.7">
<path opacity="0.7" d="M2156.72 3043.59C2170.6 3051.61 2170.69 3064.61 2156.89 3072.63L1992.51 3168.16C1978.7 3176.18 1956.26 3176.17 1942.37 3168.16L1776.91 3072.63C1763.03 3064.61 1762.95 3051.61 1776.75 3043.59L1941.13 2948.06C1954.93 2940.04 1977.37 2940.05 1991.26 2948.07L2156.72 3043.59Z" fill="#86BFF2"/>
</g>
<g opacity="0.2">
<path opacity="0.2" d="M907 1505.89C934.616 1521.83 934.782 1547.69 907.346 1563.63L580.412 1753.63C552.955 1769.58 508.316 1769.57 480.7 1753.63L151.628 1563.64C124.012 1547.69 123.846 1521.84 151.303 1505.88L478.236 1315.89C505.673 1299.94 550.312 1299.95 577.928 1315.9L907 1505.89Z" fill="#86BFF2"/>
</g>
<path opacity="0.7" d="M907 1392.98C934.616 1408.92 934.782 1434.78 907.346 1450.72L580.412 1640.72C552.955 1656.67 508.316 1656.66 480.7 1640.72L151.628 1450.73C124.012 1434.78 123.846 1408.93 151.303 1392.97L478.236 1202.98C505.673 1187.03 550.312 1187.04 577.928 1202.99L907 1392.98Z" fill="#7B8FDD"/>
<path d="M1937.98 928.412C1937.52 1085.97 1881.89 1196.84 1792.19 1249.02L1592.76 1364.86C1682.46 1312.74 1738.09 1201.87 1738.54 1044.32C1739.45 727.107 1516.41 340.854 1240.4 181.486C1101.52 101.292 975.656 93.8222 884.766 146.681L1084.2 30.7766C1175.09 -22.0256 1300.96 -14.6118 1439.84 65.5816C1715.85 224.95 1938.88 611.203 1937.98 928.412Z" fill="url(#paint2_linear_6729_24608)"/>
<path d="M1240.41 181.5C1516.43 340.861 1739.44 727.126 1738.54 1044.3C1737.64 1361.51 1513.18 1489.42 1237.15 1330.06C961.131 1170.7 738.087 784.416 738.987 467.204C739.886 150.034 964.387 22.1381 1240.41 181.5Z" fill="url(#paint3_linear_6729_24608)"/>
<path d="M1413.29 548.534C1424.31 554.896 1435.32 566.071 1443.72 580.567C1460.42 609.617 1460.33 640.89 1443.52 650.593L1316.74 722.716C1325.2 717.958 1336.24 719.506 1347.25 725.867C1358.28 732.23 1369.28 743.406 1377.69 757.901C1394.39 786.952 1394.3 818.225 1377.49 827.928C1385.89 823.076 1396.93 824.594 1407.94 830.956C1418.97 837.318 1429.97 848.525 1438.32 863.051C1455.13 892.04 1455.04 923.436 1438.12 932.954C1446.58 928.195 1457.62 929.744 1468.64 936.106C1479.65 942.468 1490.66 953.643 1499.06 968.139C1515.77 997.19 1515.68 1028.46 1498.87 1038.16L1319.73 1140.13C1311.32 1144.98 1300.29 1143.46 1289.27 1137.1C1278.25 1130.74 1267.25 1119.53 1258.89 1105L955.073 578.765C938.371 549.837 938.461 518.564 955.271 508.861C963.731 504.041 974.765 505.559 985.784 511.922C996.803 518.283 1007.81 529.489 1016.21 544.046L1107.59 702.323L1382.78 545.381C1391.24 540.622 1402.27 542.171 1413.29 548.534Z" fill="white"/>
<path d="M1065.32 340.973L1115.54 502.017L1027.14 348.898L1065.32 340.973Z" fill="white"/>
<path d="M1166.24 377.613L1211.03 416.002L1159.22 517.648L1166.24 377.613Z" fill="white"/>
<path d="M3411.89 1117.29C3411.44 1274.85 3355.81 1385.72 3266.11 1437.89L3066.67 1553.74C3156.37 1501.62 3212 1390.75 3212.46 1233.19C3213.36 915.986 2990.32 529.733 2714.32 370.365C2575.43 290.171 2449.57 282.701 2358.68 335.56L2558.12 219.656C2649.01 166.853 2774.87 174.267 2913.75 254.46C3189.76 413.829 3412.8 800.082 3411.89 1117.29Z" fill="url(#paint4_linear_6729_24608)"/>
<path d="M2714.32 370.378C2990.35 529.74 3213.35 916.005 3212.45 1233.18C3211.55 1550.39 2987.09 1678.3 2711.07 1518.94C2435.04 1359.58 2212 973.295 2212.9 656.083C2213.8 338.913 2438.3 211.017 2714.32 370.378Z" fill="url(#paint5_linear_6729_24608)"/>
<path d="M2850.13 726.687L2724.62 916.364L2825.37 974.533L2585.92 1233.3L2663.94 977.514L2536.61 904.002L2643.29 607.27L2850.13 726.687Z" fill="white"/>
<path d="M3850.53 2001.91C3850.08 2159.47 3794.45 2270.33 3704.75 2322.51L3505.31 2438.36C3595.01 2386.24 3650.64 2275.37 3651.1 2117.81C3652 1800.6 3428.96 1414.35 3152.96 1254.98C3014.07 1174.79 2888.21 1167.32 2797.32 1220.18L2996.76 1104.27C3087.65 1051.47 3213.51 1058.88 3352.39 1139.08C3628.4 1298.45 3851.44 1684.7 3850.53 2001.91Z" fill="url(#paint6_linear_6729_24608)"/>
<path d="M3152.96 1255C3428.99 1414.36 3651.99 1800.62 3651.1 2117.79C3650.2 2435 3425.73 2562.92 3149.71 2403.56C2873.69 2244.2 2650.64 1857.91 2651.54 1540.7C2652.44 1223.53 2876.94 1095.63 3152.96 1255Z" fill="url(#paint7_linear_6729_24608)"/>
<path d="M2949.47 1725.15L3070.96 1935.58L3039.52 1953.58L2886.65 1688.88L3040.52 1601.2L3071.75 1655.38L2949.47 1725.15Z" fill="white"/>
<path d="M3215.6 1719.38L3174.96 1843.5L3125.95 1993.08L3083.55 1953.33L3106.83 1882.31L3173.3 1679.68L3215.6 1719.38Z" fill="white"/>
<path d="M3259.68 1727.74L3412.56 1992.53L3258.68 2080.13L3227.37 2025.9L3349.73 1956.26L3228.25 1745.74L3259.68 1727.74Z" fill="white"/>
<path d="M3425.75 1704.48C3559.28 1950.38 3554.93 2209.79 3412.57 2290.91C3339.44 2332.59 3243.91 2319.28 3148.4 2264.13C3057.96 2211.92 2967.63 2122.08 2896.7 2005.97L2873.48 1966.43C2739.86 1720.47 2744.3 1461.01 2886.66 1380C2959.7 1338.26 3055.32 1351.63 3150.83 1406.77C3241.27 1458.99 3331.61 1548.72 3402.54 1664.94L3414.29 1684.62L3425.75 1704.48ZM3389.65 2251.21C3519.1 2177.55 3523.48 1941.27 3402.39 1717.68L3319.57 1764.88L3281.18 1786.75L3180.5 1844.13L3097.47 1891.45L3036.32 1926.29L2997.94 1948.17L2919.67 1992.77C2982.35 2094.79 3062.94 2177.44 3148.51 2226.84C3239.43 2279.34 3325.12 2287.98 3389.65 2251.21ZM2909.58 1419.7C2780.13 1493.36 2775.75 1729.64 2896.85 1953.11L2975.06 1908.56L3013.46 1886.69L3118.68 1826.75L3201.68 1779.47L3258.35 1747.19L3296.74 1725.32L3379.56 1678.14C3316.89 1576 3236.29 1493.47 3150.72 1444.07C3059.7 1391.51 2974.12 1382.82 2909.58 1419.7Z" fill="white"/>
<g opacity="0.3">
<path opacity="0.3" d="M2064.16 2606.79C2141.39 2651.38 2141.86 2723.69 2065.12 2768.29L1150.77 3299.65C1073.98 3344.27 949.137 3344.24 871.902 3299.65L-48.4307 2768.3C-125.665 2723.7 -126.13 2651.39 -49.339 2606.76L865.012 2075.4C941.745 2030.81 1066.59 2030.84 1143.83 2075.43L2064.16 2606.79Z" fill="#86BFF2"/>
</g>
<path opacity="0.7" d="M1011.27 3209.6C976.221 3209.6 943.043 3202.05 920.239 3188.89C920.239 3188.89 276.049 2816.31 98.1293 2712.77C77.956 2701.03 77.987 2671.91 98.1669 2660.18L914.03 2186.03C936.54 2172.95 969.492 2165.45 1004.44 2165.45C1039.49 2165.45 1072.68 2173 1095.5 2186.17C1095.5 2186.17 1739.68 2558.75 1917.6 2662.29C1937.77 2674.02 1937.74 2703.15 1917.56 2714.88L1101.75 3189C1079.21 3202.09 1046.23 3209.6 1011.27 3209.6Z" fill="#CEA9D6"/>
<path d="M1932.71 2390.01L1932.2 2571.05C1932.13 2595.13 1916.31 2619.18 1884.69 2637.56L1885.2 2456.52C1916.82 2438.14 1932.64 2414.1 1932.71 2390.01Z" fill="url(#paint8_linear_6729_24608)"/>
<path d="M82.5046 2570.08L83.0178 2389.04C82.9492 2413.46 99.069 2437.91 131.326 2456.53L130.813 2637.57C98.5558 2618.95 82.4359 2594.5 82.5046 2570.08Z" fill="url(#paint9_linear_6729_24608)"/>
<path d="M1885.2 2456.5L1884.69 2637.54L1125.94 3078.48L1126.45 2897.44L1885.2 2456.5Z" fill="url(#paint10_linear_6729_24608)"/>
<path d="M895.037 2897.44L894.523 3078.48L130.812 2637.55L131.324 2456.51L895.037 2897.44Z" fill="url(#paint11_linear_6729_24608)"/>
<path d="M1126.45 2897.45L1125.94 3078.49C1062.21 3115.52 958.615 3115.5 894.523 3078.49L895.036 2897.45C959.128 2934.46 1062.73 2934.48 1126.45 2897.45Z" fill="url(#paint12_linear_6729_24608)"/>
<path d="M1884.4 2322.5C1948.49 2359.5 1948.87 2419.51 1885.2 2456.51L1126.45 2897.45C1062.73 2934.48 959.131 2934.45 895.039 2897.45L131.327 2456.52C67.2362 2419.52 66.8503 2359.51 130.573 2322.48L889.322 1881.54C952.997 1844.54 1056.6 1844.56 1120.69 1881.57L1884.4 2322.5Z" fill="url(#paint13_linear_6729_24608)"/>
<path d="M1221.7 2213.56C1340.46 2282.13 1340.97 2393.26 1222.99 2461.83C1105.01 2530.39 913.137 2530.46 794.382 2461.89C675.627 2393.33 675.002 2282.13 792.984 2213.56C910.967 2145 1102.95 2145 1221.7 2213.56Z" fill="white"/>
<path d="M1231.42 2234.75L1231.13 2338.32C1231.04 2371.24 1209.39 2404.11 1166.17 2429.22C1079.21 2479.76 937.791 2479.81 850.263 2429.27C806.217 2403.84 784.219 2370.45 784.312 2337.12L784.607 2233.55C784.512 2266.88 806.51 2300.27 850.556 2325.7C938.085 2376.24 1079.5 2376.19 1166.46 2325.65C1209.68 2300.54 1231.33 2267.67 1231.42 2234.75Z" fill="url(#paint14_linear_6729_24608)"/>
<path d="M1165.51 2142.66C1253.04 2193.19 1253.42 2275.11 1166.46 2325.64C1079.5 2376.18 938.085 2376.23 850.556 2325.69C763.027 2275.16 762.566 2193.2 849.526 2142.66C936.486 2092.12 1077.98 2092.12 1165.51 2142.66Z" fill="url(#paint15_linear_6729_24608)"/>
<g opacity="0.3">
<path opacity="0.3" d="M1165.51 2039.82C1253.04 2090.35 1253.42 2172.27 1166.46 2222.8C1079.5 2273.34 938.085 2273.39 850.556 2222.85C763.027 2172.32 762.566 2090.36 849.526 2039.82C936.486 1989.28 1077.98 1989.28 1165.51 2039.82Z" fill="white"/>
</g>
<path d="M1008.02 1815.56V1601.08" stroke="#86BFF2" stroke-width="9.21812" stroke-miterlimit="10" stroke-linecap="round" stroke-linejoin="round"/>
<path d="M1324.08 1938.43L1470.05 1792.47" stroke="#86BFF2" stroke-width="9.21812" stroke-miterlimit="10" stroke-linecap="round" stroke-linejoin="round"/>
<path d="M691.951 1938.43L545.985 1792.47" stroke="#86BFF2" stroke-width="9.21812" stroke-miterlimit="10" stroke-linecap="round" stroke-linejoin="round"/>
</g>
<defs>
<radialGradient id="paint0_radial_6729_24608" cx="0" cy="0" r="1" gradientUnits="userSpaceOnUse" gradientTransform="translate(1864.01 2151.8) scale(2610.9 1710.67)">
<stop stop-color="#86BFF2"/>
<stop offset="1" stop-color="#86BFF2" stop-opacity="0"/>
</radialGradient>
<radialGradient id="paint1_radial_6729_24608" cx="0" cy="0" r="1" gradientUnits="userSpaceOnUse" gradientTransform="translate(2142.76 1835.48) scale(725.216)">
<stop stop-color="#86BFF2"/>
<stop offset="1" stop-color="#86BFF2" stop-opacity="0"/>
</radialGradient>
<linearGradient id="paint2_linear_6729_24608" x1="1252.89" y1="190.402" x2="1815.34" y2="1098.77" gradientUnits="userSpaceOnUse">
<stop stop-color="#D1AAD7"/>
<stop offset="0.243017" stop-color="#C88BC4"/>
<stop offset="0.527933" stop-color="#B38CCB"/>
<stop offset="0.77095" stop-color="#7B8FDD"/>
<stop offset="1" stop-color="#86BFF2"/>
</linearGradient>
<linearGradient id="paint3_linear_6729_24608" x1="1848.76" y1="1575.67" x2="892.59" y2="290.463" gradientUnits="userSpaceOnUse">
<stop stop-color="#D1AAD7"/>
<stop offset="0.243017" stop-color="#C88BC4"/>
<stop offset="0.527933" stop-color="#B38CCB"/>
<stop offset="0.77095" stop-color="#7B8FDD"/>
<stop offset="1" stop-color="#86BFF2"/>
</linearGradient>
<linearGradient id="paint4_linear_6729_24608" x1="2726.8" y1="379.281" x2="3289.26" y2="1287.64" gradientUnits="userSpaceOnUse">
<stop stop-color="#D1AAD7"/>
<stop offset="0.243017" stop-color="#C88BC4"/>
<stop offset="0.527933" stop-color="#B38CCB"/>
<stop offset="0.77095" stop-color="#7B8FDD"/>
<stop offset="1" stop-color="#86BFF2"/>
</linearGradient>
<linearGradient id="paint5_linear_6729_24608" x1="3322.68" y1="1764.55" x2="2366.5" y2="479.342" gradientUnits="userSpaceOnUse">
<stop stop-color="#D1AAD7"/>
<stop offset="0.243017" stop-color="#C88BC4"/>
<stop offset="0.527933" stop-color="#B38CCB"/>
<stop offset="0.77095" stop-color="#7B8FDD"/>
<stop offset="1" stop-color="#86BFF2"/>
</linearGradient>
<linearGradient id="paint6_linear_6729_24608" x1="3165.44" y1="1263.9" x2="3727.9" y2="2172.26" gradientUnits="userSpaceOnUse">
<stop stop-color="#D1AAD7"/>
<stop offset="0.243017" stop-color="#C88BC4"/>
<stop offset="0.527933" stop-color="#B38CCB"/>
<stop offset="0.77095" stop-color="#7B8FDD"/>
<stop offset="1" stop-color="#86BFF2"/>
</linearGradient>
<linearGradient id="paint7_linear_6729_24608" x1="3761.32" y1="2649.17" x2="2805.14" y2="1363.96" gradientUnits="userSpaceOnUse">
<stop stop-color="#D1AAD7"/>
<stop offset="0.243017" stop-color="#C88BC4"/>
<stop offset="0.527933" stop-color="#B38CCB"/>
<stop offset="0.77095" stop-color="#7B8FDD"/>
<stop offset="1" stop-color="#86BFF2"/>
</linearGradient>
<linearGradient id="paint8_linear_6729_24608" x1="97.4066" y1="1918.77" x2="1423.81" y2="2354.5" gradientUnits="userSpaceOnUse">
<stop stop-color="#D1AAD7"/>
<stop offset="0.243017" stop-color="#C88BC4"/>
<stop offset="0.527933" stop-color="#B38CCB"/>
<stop offset="0.77095" stop-color="#7B8FDD"/>
<stop offset="1" stop-color="#86BFF2"/>
</linearGradient>
<linearGradient id="paint9_linear_6729_24608" x1="-77.9483" y1="2452.58" x2="1248.45" y2="2888.3" gradientUnits="userSpaceOnUse">
<stop stop-color="#D1AAD7"/>
<stop offset="0.243017" stop-color="#C88BC4"/>
<stop offset="0.527933" stop-color="#B38CCB"/>
<stop offset="0.77095" stop-color="#7B8FDD"/>
<stop offset="1" stop-color="#86BFF2"/>
</linearGradient>
<linearGradient id="paint10_linear_6729_24608" x1="-17.0877" y1="2267.29" x2="1309.31" y2="2703.02" gradientUnits="userSpaceOnUse">
<stop stop-color="#D1AAD7"/>
<stop offset="0.243017" stop-color="#C88BC4"/>
<stop offset="0.527933" stop-color="#B38CCB"/>
<stop offset="0.77095" stop-color="#7B8FDD"/>
<stop offset="1" stop-color="#86BFF2"/>
</linearGradient>
<linearGradient id="paint11_linear_6729_24608" x1="-113.778" y1="2561.62" x2="1212.62" y2="2997.35" gradientUnits="userSpaceOnUse">
<stop stop-color="#D1AAD7"/>
<stop offset="0.243017" stop-color="#C88BC4"/>
<stop offset="0.527933" stop-color="#B38CCB"/>
<stop offset="0.77095" stop-color="#7B8FDD"/>
<stop offset="1" stop-color="#86BFF2"/>
</linearGradient>
<linearGradient id="paint12_linear_6729_24608" x1="-131.266" y1="2614.87" x2="1195.13" y2="3050.6" gradientUnits="userSpaceOnUse">
<stop stop-color="#D1AAD7"/>
<stop offset="0.243017" stop-color="#C88BC4"/>
<stop offset="0.527933" stop-color="#B38CCB"/>
<stop offset="0.77095" stop-color="#7B8FDD"/>
<stop offset="1" stop-color="#86BFF2"/>
</linearGradient>
<linearGradient id="paint13_linear_6729_24608" x1="437.636" y1="3184.09" x2="1238.55" y2="2068.06" gradientUnits="userSpaceOnUse">
<stop stop-color="#D1AAD7"/>
<stop offset="0.243017" stop-color="#C88BC4"/>
<stop offset="0.527933" stop-color="#B38CCB"/>
<stop offset="0.77095" stop-color="#7B8FDD"/>
<stop offset="1" stop-color="#86BFF2"/>
</linearGradient>
<linearGradient id="paint14_linear_6729_24608" x1="784.312" y1="2350.35" x2="1231.42" y2="2350.35" gradientUnits="userSpaceOnUse">
<stop stop-color="#D1AAD7"/>
<stop offset="0.243017" stop-color="#C88BC4"/>
<stop offset="0.527933" stop-color="#B38CCB"/>
<stop offset="0.77095" stop-color="#7B8FDD"/>
<stop offset="1" stop-color="#86BFF2"/>
</linearGradient>
<linearGradient id="paint15_linear_6729_24608" x1="1008.01" y1="3987.06" x2="1008.01" y2="2039.48" gradientUnits="userSpaceOnUse">
<stop stop-color="#D1AAD7"/>
<stop offset="0.243017" stop-color="#C88BC4"/>
<stop offset="0.527933" stop-color="#B38CCB"/>
<stop offset="0.77095" stop-color="#7B8FDD"/>
<stop offset="1" stop-color="#86BFF2"/>
</linearGradient>
<clipPath id="clip0_6729_24608">
<rect width="3881.87" height="3402.55" fill="white"/>
</clipPath>
</defs>
</svg>
