<svg width="64" height="65" viewBox="0 0 64 65" fill="none" xmlns="http://www.w3.org/2000/svg">
<path d="M47.8572 43.0841C44.5657 43.4288 41.2438 42.8363 38.2745 41.3748C35.3051 39.9134 32.8093 37.6425 31.0747 34.824C29.34 32.0055 28.4373 28.7542 28.4704 25.4449C28.5036 22.1356 29.4713 18.903 31.262 16.1198C31.8558 15.207 32.5299 14.349 33.2763 13.5561C33.9047 12.5758 36.0526 11.8354 34.2377 11.5763C22.6171 7.74158 10.0283 16.9096 10.2264 29.1787L10.2262 39.4332C10.272 43.7021 7.056 48.0169 4.34356 50.8895C3.9144 51.3622 3.63096 51.9487 3.52733 52.5787C3.42371 53.2086 3.50431 53.8551 3.75944 54.4403C4.01458 55.0255 4.43338 55.5245 4.96545 55.8773C5.49752 56.23 6.12019 56.4216 6.75855 56.4288L50.6268 56.4289C51.2691 56.4306 51.8979 56.2443 52.4357 55.8931C52.9734 55.5419 53.3967 55.0411 53.6534 54.4523C53.9101 53.8635 53.989 53.2125 53.8803 52.5795C53.7716 51.9464 53.4801 51.359 53.0417 50.8895C50.8222 48.6497 49.0612 45.9984 47.8572 43.0841Z" fill="url(#paint0_linear_10968_19)"/>
<path d="M25.4482 8.12054C28.3796 7.67944 31.3701 7.83909 34.2379 8.58978C34.3141 6.46721 34.3199 4.05964 32.6125 2.50107C31.8319 1.74084 30.8454 1.22634 29.7752 1.02133C28.705 0.816311 27.5981 0.929787 26.5918 1.34769C25.5855 1.7656 24.7239 2.46958 24.1137 3.3724C23.5036 4.27522 23.1717 5.33721 23.1593 6.4268L23.1592 8.58978C23.9122 8.38799 24.6765 8.2313 25.4482 8.12054Z" fill="url(#paint1_linear_10968_19)"/>
<path d="M46.0373 10.9121C42.14 10.916 38.4033 12.4652 35.6465 15.2199C32.8896 17.9746 31.3375 21.7101 31.3306 25.6074C32.1386 45.1176 59.939 45.1119 60.744 25.6073C60.737 21.71 59.1849 17.9746 56.4281 15.2199C53.6712 12.4652 49.9345 10.9161 46.0373 10.9121ZM48.6696 31.2383C48.6641 31.5382 48.5411 31.8239 48.327 32.0341C48.113 32.2442 47.825 32.3619 47.5251 32.3619C47.2252 32.3619 46.9372 32.2441 46.7232 32.034C46.5092 31.8239 46.3862 31.5381 46.3806 31.2383V22.7462L45.3621 23.7648C45.1466 23.9733 44.858 24.089 44.5582 24.087C44.2584 24.0851 43.9713 23.9656 43.7586 23.7544C43.5458 23.5431 43.4244 23.2569 43.4203 22.9571C43.4163 22.6573 43.53 22.3679 43.7369 22.1509L46.7125 19.1754C46.8735 19.0187 47.0767 18.9125 47.2971 18.8698C47.5176 18.827 47.7458 18.8496 47.9536 18.9346C48.1614 19.0197 48.3399 19.1636 48.4671 19.3487C48.5943 19.5338 48.6646 19.752 48.6696 19.9765L48.6696 31.2383Z" fill="url(#paint2_linear_10968_19)"/>
<path d="M20.0576 59.2913C23.3332 66.8014 34.4394 66.7975 37.7286 59.291L20.0576 59.2913Z" fill="url(#paint3_linear_10968_19)"/>
<defs>
<linearGradient id="paint0_linear_10968_19" x1="3.4834" y1="33.5611" x2="53.9278" y2="33.5611" gradientUnits="userSpaceOnUse">
<stop stop-color="#D1A9D7"/>
<stop offset="1" stop-color="#7E9AE2"/>
</linearGradient>
<linearGradient id="paint1_linear_10968_19" x1="23.1592" y1="4.75583" x2="34.2626" y2="4.75583" gradientUnits="userSpaceOnUse">
<stop stop-color="#D1A9D7"/>
<stop offset="1" stop-color="#7E9AE2"/>
</linearGradient>
<linearGradient id="paint2_linear_10968_19" x1="31.3306" y1="25.575" x2="60.744" y2="25.575" gradientUnits="userSpaceOnUse">
<stop stop-color="#D1A9D7"/>
<stop offset="1" stop-color="#7E9AE2"/>
</linearGradient>
<linearGradient id="paint3_linear_10968_19" x1="20.0576" y1="62.1067" x2="37.7286" y2="62.1067" gradientUnits="userSpaceOnUse">
<stop stop-color="#D1A9D7"/>
<stop offset="1" stop-color="#7E9AE2"/>
</linearGradient>
</defs>
</svg>
