<svg width="66" height="42" viewBox="0 0 66 42" fill="none" xmlns="http://www.w3.org/2000/svg">
<path d="M56.5909 18.4225C58.507 17.076 59.7758 14.8362 59.7758 12.3116C59.7758 8.1815 56.4355 4.8412 52.3054 4.8412C48.1754 4.8412 44.8351 8.1815 44.8351 12.3116C44.8351 14.8362 46.0909 17.076 48.02 18.4225C46.3758 18.9922 44.8739 19.8725 43.6051 21.0119C41.8573 19.523 39.7987 18.3837 37.546 17.7104C40.2778 16.0532 42.1162 13.0366 42.1162 9.60566C42.1162 4.37511 37.8826 0.141479 32.6521 0.141479C27.4215 0.141479 23.1879 4.38806 23.1879 9.60566C23.1879 13.0366 25.0134 16.0532 27.7581 17.7104C25.5313 18.3837 23.4986 19.51 21.7637 20.973C20.4949 19.8596 19.019 18.9922 17.4006 18.4354C19.3168 17.089 20.5856 14.8492 20.5856 12.3245C20.5856 8.19445 17.2453 4.85415 13.1152 4.85415C8.98514 4.85415 5.64484 8.19445 5.64484 12.3245C5.64484 14.8492 6.90069 17.089 8.82978 18.4354C3.68986 20.2092 0 25.0901 0 30.8256V31.6801C0 31.706 0.0258938 31.7319 0.0517876 31.7319H15.8858C15.7952 32.444 15.7434 33.1819 15.7434 33.9199V34.8003C15.7434 38.6067 18.8248 41.6881 22.6312 41.6881H42.6988C46.5052 41.6881 49.5866 38.6067 49.5866 34.8003V33.9199C49.5866 33.1819 49.5348 32.444 49.4442 31.7319H65.3818C65.4077 31.7319 65.4336 31.706 65.4336 31.6801V30.8256C65.4077 25.0772 61.7308 20.1962 56.5909 18.4225ZM46.9066 12.2986C46.9066 9.32083 49.3277 6.89976 52.3054 6.89976C55.2832 6.89976 57.7043 9.32083 57.7043 12.2986C57.7043 15.2376 55.335 17.6327 52.409 17.6975C52.3702 17.6975 52.3443 17.6975 52.3054 17.6975C52.2666 17.6975 52.2407 17.6975 52.2019 17.6975C49.2629 17.6457 46.9066 15.2505 46.9066 12.2986ZM25.2335 9.60566C25.2335 5.52739 28.5479 2.21298 32.6262 2.21298C36.7044 2.21298 40.0188 5.52739 40.0188 9.60566C40.0188 13.5415 36.9245 16.7653 33.0534 16.9854C32.911 16.9854 32.7686 16.9854 32.6262 16.9854C32.4838 16.9854 32.3413 16.9854 32.1989 16.9854C28.3278 16.7653 25.2335 13.5415 25.2335 9.60566ZM7.67751 12.2986C7.67751 9.32083 10.0986 6.89976 13.0764 6.89976C16.0541 6.89976 18.4752 9.32083 18.4752 12.2986C18.4752 15.2376 16.1059 17.6327 13.1799 17.6975C13.1411 17.6975 13.1152 17.6975 13.0764 17.6975C13.0375 17.6975 13.0116 17.6975 12.9728 17.6975C10.0468 17.6457 7.67751 15.2505 7.67751 12.2986ZM16.2483 29.6474H2.0974C2.68001 24.1321 7.34089 19.8078 12.9987 19.769C13.0246 19.769 13.0505 19.769 13.0764 19.769C13.1023 19.769 13.1281 19.769 13.154 19.769C15.847 19.7819 18.3069 20.7788 20.2101 22.3972C18.3457 24.4169 16.9604 26.9027 16.2483 29.6474ZM47.4892 34.8003C47.4892 37.4544 45.3271 39.6166 42.673 39.6166H22.6053C19.9512 39.6166 17.789 37.4544 17.789 34.8003V33.9199C17.789 25.8799 24.2107 19.3029 32.1989 19.0698C32.3413 19.0828 32.4967 19.0828 32.6391 19.0828C32.7815 19.0828 32.9369 19.0828 33.0793 19.0698C41.0675 19.3029 47.4892 25.8799 47.4892 33.9199V34.8003ZM49.0299 29.6474C48.3178 26.9157 46.9584 24.4687 45.107 22.449C47.0231 20.7918 49.5089 19.7949 52.2278 19.769C52.2537 19.769 52.2795 19.769 52.3054 19.769C52.3313 19.769 52.3572 19.769 52.3831 19.769C58.0409 19.8078 62.7018 24.1321 63.2844 29.6474H49.0299Z" fill="#C07CBB"/>
</svg>
